<svg width="1300" height="855" viewBox="0 0 1300 855" fill="none" xmlns="http://www.w3.org/2000/svg">
<rect x="50" width="1065" height="823" fill="#C8D7EC"/>
<path d="M615.58 138.53H602.849C603.702 138.488 604.552 138.707 605.348 139.172C606.145 139.638 606.871 140.341 607.484 141.24C608.097 142.138 608.585 143.215 608.918 144.404C609.251 145.594 609.423 146.873 609.423 148.165C609.423 149.457 609.251 150.736 608.918 151.926C608.585 153.115 608.097 154.192 607.484 155.09C606.871 155.989 606.145 156.692 605.348 157.158C604.552 157.623 603.702 157.842 602.849 157.8H529.204C527.551 157.719 525.984 156.669 524.833 154.871C523.683 153.073 523.04 150.668 523.04 148.165C523.04 145.662 523.683 143.257 524.833 141.459C525.984 139.661 527.551 138.611 529.204 138.53H541.935C540.248 138.53 538.629 137.515 537.436 135.709C536.243 133.903 535.573 131.454 535.573 128.9C535.573 126.346 536.243 123.897 537.436 122.091C538.629 120.285 540.248 119.27 541.935 119.27H532.844C531.191 119.189 529.624 118.139 528.474 116.341C527.323 114.543 526.68 112.138 526.68 109.635C526.68 107.132 527.323 104.727 528.474 102.929C529.624 101.131 531.191 100.081 532.844 100H606.489C608.142 100.081 609.709 101.131 610.859 102.929C612.01 104.727 612.653 107.132 612.653 109.635C612.653 112.138 612.01 114.543 610.859 116.341C609.709 118.139 608.142 119.189 606.489 119.27H615.58C617.267 119.27 618.885 120.285 620.079 122.091C621.272 123.897 621.942 126.346 621.942 128.9C621.942 131.454 621.272 133.903 620.079 135.709C618.885 137.515 617.267 138.53 615.58 138.53Z" fill="white"/>
<path d="M963.092 151.53H950.361C951.214 151.488 952.064 151.707 952.86 152.172C953.657 152.638 954.383 153.341 954.996 154.24C955.61 155.138 956.097 156.215 956.43 157.404C956.763 158.594 956.935 159.873 956.935 161.165C956.935 162.457 956.763 163.736 956.43 164.926C956.097 166.115 955.61 167.192 954.996 168.09C954.383 168.989 953.657 169.692 952.86 170.158C952.064 170.623 951.214 170.842 950.361 170.8H876.716C875.063 170.719 873.496 169.669 872.346 167.871C871.195 166.073 870.552 163.668 870.552 161.165C870.552 158.662 871.195 156.257 872.346 154.459C873.496 152.661 875.063 151.611 876.716 151.53H889.447C887.76 151.53 886.141 150.515 884.948 148.709C883.755 146.903 883.085 144.454 883.085 141.9C883.085 139.346 883.755 136.897 884.948 135.091C886.141 133.285 887.76 132.27 889.447 132.27H880.356C878.704 132.189 877.136 131.139 875.986 129.341C874.836 127.543 874.193 125.138 874.193 122.635C874.193 120.132 874.836 117.727 875.986 115.929C877.136 114.131 878.704 113.081 880.356 113H954.001C955.654 113.081 957.221 114.131 958.371 115.929C959.522 117.727 960.165 120.132 960.165 122.635C960.165 125.138 959.522 127.543 958.371 129.341C957.221 131.139 955.654 132.189 954.001 132.27H963.092C964.779 132.27 966.398 133.285 967.591 135.091C968.784 136.897 969.454 139.346 969.454 141.9C969.454 144.454 968.784 146.903 967.591 148.709C966.398 150.515 964.779 151.53 963.092 151.53Z" fill="white"/>
<path d="M322.903 138.53H310.171C311.025 138.488 311.875 138.707 312.671 139.172C313.467 139.638 314.194 140.341 314.807 141.24C315.42 142.138 315.908 143.215 316.241 144.404C316.574 145.594 316.745 146.873 316.745 148.165C316.745 149.457 316.574 150.736 316.241 151.926C315.908 153.115 315.42 154.192 314.807 155.09C314.194 155.989 313.467 156.692 312.671 157.158C311.875 157.623 311.025 157.842 310.171 157.8H236.527C234.874 157.719 233.307 156.669 232.156 154.871C231.006 153.073 230.363 150.668 230.363 148.165C230.363 145.662 231.006 143.257 232.156 141.459C233.307 139.661 234.874 138.611 236.527 138.53H249.258C247.57 138.53 245.952 137.515 244.759 135.709C243.566 133.903 242.895 131.454 242.895 128.9C242.895 126.346 243.566 123.897 244.759 122.091C245.952 120.285 247.57 119.27 249.258 119.27H240.167C238.514 119.189 236.947 118.139 235.797 116.341C234.646 114.543 234.003 112.138 234.003 109.635C234.003 107.132 234.646 104.727 235.797 102.929C236.947 101.131 238.514 100.081 240.167 100H313.812C315.464 100.081 317.032 101.131 318.182 102.929C319.332 104.727 319.975 107.132 319.975 109.635C319.975 112.138 319.332 114.543 318.182 116.341C317.032 118.139 315.464 119.189 313.812 119.27H322.903C324.59 119.27 326.208 120.285 327.401 122.091C328.594 123.897 329.265 126.346 329.265 128.9C329.265 131.454 328.594 133.903 327.401 135.709C326.208 137.515 324.59 138.53 322.903 138.53Z" fill="white"/>
<path d="M786.032 323.53H773.301C774.154 323.488 775.005 323.707 775.801 324.172C776.597 324.638 777.324 325.341 777.937 326.24C778.55 327.138 779.038 328.215 779.371 329.404C779.704 330.594 779.875 331.873 779.875 333.165C779.875 334.457 779.704 335.736 779.371 336.926C779.038 338.115 778.55 339.192 777.937 340.09C777.324 340.989 776.597 341.692 775.801 342.158C775.005 342.623 774.154 342.842 773.301 342.8H699.656C698.004 342.719 696.436 341.669 695.286 339.871C694.136 338.073 693.493 335.668 693.493 333.165C693.493 330.662 694.136 328.257 695.286 326.459C696.436 324.661 698.004 323.611 699.656 323.53H712.388C710.7 323.53 709.082 322.515 707.889 320.709C706.696 318.903 706.025 316.454 706.025 313.9C706.025 311.346 706.696 308.897 707.889 307.091C709.082 305.285 710.7 304.27 712.388 304.27H703.297C701.644 304.189 700.077 303.139 698.926 301.341C697.776 299.543 697.133 297.138 697.133 294.635C697.133 292.132 697.776 289.727 698.926 287.929C700.077 286.131 701.644 285.081 703.297 285H776.942C778.594 285.081 780.162 286.131 781.312 287.929C782.462 289.727 783.105 292.132 783.105 294.635C783.105 297.138 782.462 299.543 781.312 301.341C780.162 303.139 778.594 304.189 776.942 304.27H786.032C787.72 304.27 789.338 305.285 790.531 307.091C791.724 308.897 792.395 311.346 792.395 313.9C792.395 316.454 791.724 318.903 790.531 320.709C789.338 322.515 787.72 323.53 786.032 323.53Z" fill="white"/>
<path d="M441.162 305.53H428.431C429.284 305.488 430.134 305.707 430.931 306.172C431.727 306.638 432.453 307.341 433.067 308.24C433.68 309.138 434.168 310.215 434.501 311.404C434.834 312.594 435.005 313.873 435.005 315.165C435.005 316.457 434.834 317.736 434.501 318.926C434.168 320.115 433.68 321.192 433.067 322.09C432.453 322.989 431.727 323.692 430.931 324.158C430.134 324.623 429.284 324.842 428.431 324.8H354.786C353.134 324.719 351.566 323.669 350.416 321.871C349.266 320.073 348.623 317.668 348.623 315.165C348.623 312.662 349.266 310.257 350.416 308.459C351.566 306.661 353.134 305.611 354.786 305.53H367.517C365.83 305.53 364.212 304.515 363.019 302.709C361.825 300.903 361.155 298.454 361.155 295.9C361.155 293.346 361.825 290.897 363.019 289.091C364.212 287.285 365.83 286.27 367.517 286.27H358.427C356.774 286.189 355.207 285.139 354.056 283.341C352.906 281.543 352.263 279.138 352.263 276.635C352.263 274.132 352.906 271.727 354.056 269.929C355.207 268.131 356.774 267.081 358.427 267H432.071C433.724 267.081 435.292 268.131 436.442 269.929C437.592 271.727 438.235 274.132 438.235 276.635C438.235 279.138 437.592 281.543 436.442 283.341C435.292 285.139 433.724 286.189 432.071 286.27H441.162C442.85 286.27 444.468 287.285 445.661 289.091C446.854 290.897 447.525 293.346 447.525 295.9C447.525 298.454 446.854 300.903 445.661 302.709C444.468 304.515 442.85 305.53 441.162 305.53Z" fill="white"/>
<path d="M221.159 334.53H208.428C209.281 334.488 210.131 334.707 210.928 335.172C211.724 335.638 212.45 336.341 213.064 337.24C213.677 338.138 214.165 339.215 214.498 340.404C214.831 341.594 215.002 342.873 215.002 344.165C215.002 345.457 214.831 346.736 214.498 347.926C214.165 349.115 213.677 350.192 213.064 351.09C212.45 351.989 211.724 352.692 210.928 353.158C210.131 353.623 209.281 353.842 208.428 353.8H134.783C133.131 353.719 131.563 352.669 130.413 350.871C129.263 349.073 128.62 346.668 128.62 344.165C128.62 341.662 129.263 339.257 130.413 337.459C131.563 335.661 133.131 334.611 134.783 334.53H147.514C145.827 334.53 144.209 333.515 143.016 331.709C141.823 329.903 141.152 327.454 141.152 324.9C141.152 322.346 141.823 319.897 143.016 318.091C144.209 316.285 145.827 315.27 147.514 315.27H138.424C136.771 315.189 135.204 314.139 134.053 312.341C132.903 310.543 132.26 308.138 132.26 305.635C132.26 303.132 132.903 300.727 134.053 298.929C135.204 297.131 136.771 296.081 138.424 296H212.069C213.721 296.081 215.289 297.131 216.439 298.929C217.589 300.727 218.232 303.132 218.232 305.635C218.232 308.138 217.589 310.543 216.439 312.341C215.289 314.139 213.721 315.189 212.069 315.27H221.159C222.847 315.27 224.465 316.285 225.658 318.091C226.851 319.897 227.522 322.346 227.522 324.9C227.522 327.454 226.851 329.903 225.658 331.709C224.465 333.515 222.847 334.53 221.159 334.53Z" fill="white"/>
<path d="M195.723 840.406C196.266 842.634 196.988 844.815 197.883 846.926C211.783 841.466 225.836 836.233 240.043 831.226C239.923 830.636 239.803 830.016 239.653 829.406C238.222 823.115 235.167 817.309 230.793 812.566C225.113 806.566 217.793 803.666 210.673 805.436C203.553 807.206 198.383 813.266 196.023 821.236C194.258 827.492 194.155 834.099 195.723 840.406Z" fill="#A1616A"/>
<path d="M215.694 828.477C227.898 825.752 234.834 810.307 231.188 793.981C227.541 777.654 214.693 766.628 202.49 769.354C190.287 772.079 183.35 787.524 186.996 803.85C190.643 820.177 203.491 831.203 215.694 828.477Z" fill="#A1616A"/>
<path d="M207.131 792.461C219.334 789.736 226.271 774.291 222.624 757.965C218.978 741.638 206.129 730.612 193.926 733.338C181.723 736.063 174.787 751.508 178.433 767.834C182.079 784.161 194.928 795.187 207.131 792.461Z" fill="#A1616A"/>
<path d="M198.55 756.467C210.754 753.742 217.69 738.297 214.044 721.97C210.397 705.644 197.549 694.618 185.346 697.344C173.143 700.069 166.206 715.514 169.852 731.84C173.499 748.167 186.347 759.192 198.55 756.467Z" fill="#A1616A"/>
<path d="M189.97 720.463C202.173 717.737 209.109 702.293 205.463 685.966C201.817 669.64 188.968 658.614 176.765 661.34C164.562 664.065 157.625 679.51 161.272 695.836C164.918 712.163 177.767 723.188 189.97 720.463Z" fill="#A1616A"/>
<path d="M206.913 423.926C208.993 419.259 210.751 414.455 212.173 409.546L152.173 414.266L214.713 399.136C217.701 383.409 217.322 367.227 213.603 351.656C210.341 337.872 204.494 324.832 196.373 313.226L123.173 378.676L186.543 301.206C160.673 273.586 121.543 260.446 82.6526 270.206C24.5426 284.736 -11.0674 344.776 3.11261 404.306C8.74918 428.352 22.2619 449.823 41.5026 465.306C38.2701 472.574 35.8132 480.163 34.1726 487.946L118.593 509.086L32.1726 501.596C31.139 513.663 32.0437 525.816 34.8526 537.596C40.499 561.64 54.014 583.109 73.2526 598.596C63.1421 621.298 60.8081 646.703 66.6126 670.866C80.7926 730.396 139.393 766.866 197.503 752.346C255.613 737.826 291.223 677.786 277.043 618.257C271.396 594.213 257.881 572.744 238.643 557.256C248.753 534.555 251.087 509.15 245.283 484.986C239.661 460.923 226.155 439.43 206.913 423.926Z" fill="#CDE3CB"/>
<path opacity="0.1" d="M34.8727 537.557C40.5191 561.6 54.0341 583.069 73.2727 598.557C63.1623 621.258 60.8282 646.663 66.6327 670.827C80.8127 730.357 139.413 766.827 197.523 752.307C255.633 737.787 291.243 677.747 277.063 618.217C271.416 594.173 257.901 572.704 238.663 557.217C248.403 535.357 31.9927 525.487 34.8727 537.557Z" fill="black"/>
<path opacity="0.2" d="M1276.19 766.925H1139.05C1135.97 766.844 1133.05 765.791 1130.91 763.988C1128.77 762.185 1127.57 759.774 1127.57 757.265C1127.57 754.755 1128.77 752.344 1130.91 750.542C1133.05 748.739 1135.97 747.686 1139.05 747.605H1162.76C1159.62 747.605 1156.6 746.588 1154.38 744.777C1152.16 742.966 1150.91 740.51 1150.91 737.95C1150.91 735.389 1152.16 732.933 1154.38 731.123C1156.6 729.312 1159.62 728.295 1162.76 728.295H1145.83C1142.75 728.214 1139.83 727.161 1137.69 725.358C1135.55 723.555 1134.35 721.144 1134.35 718.635C1134.35 716.125 1135.55 713.714 1137.69 711.911C1139.83 710.109 1142.75 709.056 1145.83 708.975H1217.41C1201.53 702.959 1182.96 698.678 1161.56 696.432C966.388 676.009 896.703 689.514 872.121 703.45C841.794 720.595 807.96 733.207 771.801 739.283C651.378 759.526 426.169 783.879 222.047 731.483C120.595 705.416 45.2018 749.45 0 823H1300C1298.3 801.625 1293.22 781.894 1283.9 764.609C1281.75 766.106 1279.02 766.927 1276.19 766.925Z" fill="#2C9B22"/>
<path d="M930.289 844.427C929.925 847.031 929.781 849.66 929.859 852.287C947.292 852.567 964.792 853.154 982.359 854.047C982.479 853.357 982.599 852.657 982.699 851.947C983.831 844.615 982.986 837.113 980.249 830.217C976.629 821.397 969.879 815.087 961.429 813.867C952.979 812.647 944.739 816.807 938.789 824.227C934.207 830.083 931.273 837.057 930.289 844.427Z" fill="#A0616A"/>
<path d="M988.766 810.052C991.489 791.105 981.962 774.058 967.487 771.977C953.011 769.896 939.068 783.569 936.345 802.517C933.621 821.464 943.148 838.511 957.624 840.592C972.099 842.673 986.042 829 988.766 810.052Z" fill="#A0616A"/>
<path d="M994.79 768.118C997.514 749.17 987.987 732.123 973.511 730.043C959.035 727.962 945.093 741.635 942.369 760.582C939.645 779.53 949.172 796.576 963.648 798.657C978.124 800.738 992.067 787.065 994.79 768.118Z" fill="#A0616A"/>
<path d="M1000.81 726.193C1003.54 707.245 994.01 690.199 979.535 688.118C965.059 686.037 951.116 699.71 948.392 718.657C945.669 737.605 955.196 754.652 969.672 756.733C984.147 758.813 998.09 745.14 1000.81 726.193Z" fill="#A0616A"/>
<path d="M1006.85 684.26C1009.57 665.312 1000.04 648.266 985.569 646.185C971.093 644.104 957.15 657.777 954.427 676.724C951.703 695.672 961.23 712.719 975.706 714.799C990.181 716.88 1004.12 703.207 1006.85 684.26Z" fill="#A0616A"/>
<path d="M1119.95 407.617C1124.19 403.566 1128.14 399.222 1131.77 394.617L1064.54 373.497L1138.93 384.747C1148.3 370.229 1154.62 353.95 1157.49 336.908C1160.36 319.865 1159.72 302.416 1155.62 285.627L1048.26 323.067L1150.14 268.567C1143.65 252.408 1133.9 237.759 1121.51 225.531C1109.11 213.303 1094.32 203.759 1078.08 197.494C1061.83 191.229 1044.47 188.376 1027.07 189.114C1009.67 189.852 992.612 194.164 976.954 201.783C961.296 209.401 947.374 220.163 936.056 233.396C924.739 246.63 916.267 262.052 911.17 278.703C906.072 295.353 904.458 312.875 906.428 330.177C908.398 347.478 913.909 364.189 922.619 379.267C916.032 385.561 910.142 392.544 905.049 400.097L987.759 459.377L897.049 413.697C887.506 432.516 882.807 453.418 883.376 474.51C883.946 495.603 889.765 516.22 900.309 534.497C883.083 550.92 870.826 571.859 864.94 594.919C859.054 617.98 859.775 642.231 867.022 664.901C874.269 687.571 887.749 707.744 905.92 723.114C924.091 738.484 946.221 748.43 969.779 751.816C993.337 755.202 1017.37 751.89 1039.14 742.26C1060.9 732.629 1079.52 717.069 1092.85 697.357C1106.19 677.646 1113.71 654.579 1114.56 630.794C1115.41 607.01 1109.54 583.467 1097.64 562.857C1118.22 543.23 1131.62 517.253 1135.66 489.099C1139.71 460.945 1134.17 432.248 1119.95 407.617Z" fill="#CDE3CB"/>
<path opacity="0.1" d="M884.599 453.017C880.51 481.171 886.045 509.882 900.309 534.497C883.083 550.92 870.826 571.859 864.94 594.919C859.054 617.98 859.775 642.231 867.022 664.901C874.269 687.571 887.749 707.744 905.92 723.114C924.091 738.484 946.221 748.43 969.779 751.816C993.337 755.202 1017.37 751.89 1039.14 742.26C1060.9 732.629 1079.52 717.069 1092.85 697.357C1106.19 677.646 1113.71 654.579 1114.56 630.794C1115.41 607.01 1109.54 583.467 1097.64 562.857C1117.54 543.907 886.629 438.927 884.599 453.017Z" fill="black"/>
</svg>
