<svg width="1440" height="1024" viewBox="0 0 1440 1024" fill="none" xmlns="http://www.w3.org/2000/svg">
<rect x="16" y="-28" width="1440" height="1024" fill="#312F47" fill-opacity="0.7"/>
<path opacity="0.8" d="M966.923 128.255L999.893 89.6568L1032.86 51.0582L1051.48 29.2687C1052.51 28.0631 1050.92 26.1823 1049.89 27.3879L1016.92 65.9864L983.946 104.585L965.334 126.374C964.304 127.58 965.893 129.461 966.923 128.255Z" fill="url(#paint0_linear_53_1024)"/>
<path opacity="0.8" d="M697.923 115.255L730.893 76.6568L763.864 38.0582L782.476 16.2687C783.506 15.0631 781.917 13.1823 780.887 14.3879L747.917 52.9864L714.946 91.585L696.334 113.374C695.304 114.58 696.893 116.461 697.923 115.255Z" fill="url(#paint1_linear_53_1024)"/>
<path opacity="0.8" d="M1194.92 316.255L1227.89 277.657L1260.86 239.058L1279.48 217.269C1280.51 216.063 1278.92 214.182 1277.89 215.388L1244.92 253.986L1211.95 292.585L1193.33 314.374C1192.3 315.58 1193.89 317.461 1194.92 316.255Z" fill="url(#paint2_linear_53_1024)"/>
<path opacity="0.8" d="M1398.92 535.255L1431.89 496.657L1464.86 458.058L1483.48 436.269C1484.51 435.063 1482.92 433.182 1481.89 434.388L1448.92 472.986L1415.95 511.585L1397.33 533.374C1396.3 534.58 1397.89 536.461 1398.92 535.255Z" fill="url(#paint3_linear_53_1024)"/>
<path opacity="0.8" d="M1155.92 139.255L1188.89 100.657L1221.86 62.0582L1240.48 40.2687C1241.51 39.0631 1239.92 37.1823 1238.89 38.3879L1205.92 76.9864L1172.95 115.585L1154.33 137.374C1153.3 138.58 1154.89 140.461 1155.92 139.255Z" fill="url(#paint4_linear_53_1024)"/>
<path opacity="0.8" d="M301.923 544.255L334.893 505.657L367.864 467.058L386.476 445.269C387.506 444.063 385.917 442.182 384.887 443.388L351.917 481.986L318.946 520.585L300.334 542.374C299.304 543.58 300.893 545.461 301.923 544.255Z" fill="url(#paint5_linear_53_1024)"/>
<path opacity="0.8" d="M522.923 358.255L555.893 319.657L588.864 281.058L607.476 259.269C608.506 258.063 606.917 256.182 605.887 257.388L572.917 295.986L539.946 334.585L521.334 356.374C520.304 357.58 521.893 359.461 522.923 358.255Z" fill="url(#paint6_linear_53_1024)"/>
<path opacity="0.8" d="M292.923 316.255L325.893 277.657L358.864 239.058L377.476 217.269C378.506 216.063 376.917 214.182 375.887 215.388L342.917 253.986L309.946 292.585L291.334 314.374C290.304 315.58 291.893 317.461 292.923 316.255Z" fill="url(#paint7_linear_53_1024)"/>
<path opacity="0.8" d="M774.923 332.255L807.893 293.657L840.864 255.058L859.476 233.269C860.506 232.063 858.917 230.182 857.887 231.388L824.917 269.986L791.946 308.585L773.334 330.374C772.304 331.58 773.893 333.461 774.923 332.255Z" fill="url(#paint8_linear_53_1024)"/>
<path d="M1032.91 5.35599L1030.46 4.81699L1030.99 2.35898L1029.36 2L1028.82 4.45798L1026.36 3.91998L1026 5.55798L1028.46 6.09698L1027.92 8.55399L1029.56 8.91299L1030.1 6.45499L1032.55 6.99399L1032.91 5.35599Z" fill="#E6E6E6"/>
<path d="M1099.91 79.356L1097.46 78.817L1097.99 76.359L1096.36 76L1095.82 78.458L1093.36 77.92L1093 79.558L1095.46 80.097L1094.92 82.554L1096.56 82.913L1097.1 80.455L1099.55 80.994L1099.91 79.356Z" fill="#E6E6E6"/>
<path d="M756.912 285.356L754.455 284.817L754.993 282.359L753.355 282L752.816 284.458L750.359 283.92L750 285.558L752.457 286.097L751.919 288.554L753.557 288.913L754.096 286.455L756.553 286.994L756.912 285.356Z" fill="#E6E6E6"/>
<path d="M562.912 79.356L560.455 78.817L560.993 76.359L559.355 76L558.816 78.458L556.359 77.92L556 79.558L558.457 80.097L557.919 82.554L559.557 82.913L560.096 80.455L562.553 80.994L562.912 79.356Z" fill="#E6E6E6"/>
<path d="M334.912 202.356L332.455 201.817L332.993 199.359L331.355 199L330.816 201.458L328.359 200.92L328 202.558L330.457 203.097L329.919 205.554L331.557 205.913L332.096 203.455L334.553 203.994L334.912 202.356Z" fill="#E6E6E6"/>
<path d="M475.912 285.356L473.455 284.817L473.993 282.359L472.355 282L471.816 284.458L469.359 283.92L469 285.558L471.457 286.097L470.919 288.554L472.557 288.913L473.096 286.455L475.553 286.994L475.912 285.356Z" fill="#E6E6E6"/>
<path d="M309.912 619.356L307.455 618.817L307.993 616.359L306.355 616L305.816 618.458L303.359 617.92L303 619.558L305.457 620.097L304.919 622.554L306.557 622.913L307.096 620.455L309.553 620.994L309.912 619.356Z" fill="#E6E6E6"/>
<path d="M527.912 8.35599L525.455 7.81699L525.993 5.35898L524.355 5L523.816 7.45798L521.359 6.91998L521 8.55798L523.457 9.09698L522.919 11.554L524.557 11.913L525.096 9.45499L527.553 9.99399L527.912 8.35599Z" fill="#E6E6E6"/>
<path d="M603.912 40.356L601.455 39.817L601.993 37.359L600.355 37L599.816 39.458L597.359 38.92L597 40.558L599.457 41.097L598.919 43.554L600.557 43.913L601.096 41.455L603.553 41.994L603.912 40.356Z" fill="#E6E6E6"/>
<path d="M952.912 288.356L950.455 287.817L950.993 285.359L949.355 285L948.816 287.458L946.359 286.92L946 288.558L948.457 289.097L947.919 291.554L949.557 291.913L950.096 289.455L952.553 289.994L952.912 288.356Z" fill="#E6E6E6"/>
<path d="M1420.91 531.356L1418.46 530.817L1418.99 528.359L1417.36 528L1416.82 530.458L1414.36 529.92L1414 531.558L1416.46 532.097L1415.92 534.554L1417.56 534.913L1418.1 532.455L1420.55 532.994L1420.91 531.356Z" fill="#E6E6E6"/>
<path d="M1437.91 405.356L1435.46 404.817L1435.99 402.359L1434.36 402L1433.82 404.458L1431.36 403.92L1431 405.558L1433.46 406.097L1432.92 408.554L1434.56 408.913L1435.1 406.455L1437.55 406.994L1437.91 405.356Z" fill="#E6E6E6"/>
<path d="M1206.58 11.153C1208.55 11.153 1210.15 9.55175 1210.15 7.57651C1210.15 5.60127 1208.55 4 1206.58 4C1204.6 4 1203 5.60127 1203 7.57651C1203 9.55175 1204.6 11.153 1206.58 11.153Z" fill="#6C63FF"/>
<path d="M1133.58 295.153C1135.55 295.153 1137.15 293.552 1137.15 291.577C1137.15 289.601 1135.55 288 1133.58 288C1131.6 288 1130 289.601 1130 291.577C1130 293.552 1131.6 295.153 1133.58 295.153Z" fill="#6C63FF"/>
<path d="M1409.58 472.153C1411.55 472.153 1413.15 470.552 1413.15 468.577C1413.15 466.601 1411.55 465 1409.58 465C1407.6 465 1406 466.601 1406 468.577C1406 470.552 1407.6 472.153 1409.58 472.153Z" fill="#6C63FF"/>
<path d="M688.576 288.153C690.552 288.153 692.153 286.552 692.153 284.577C692.153 282.601 690.552 281 688.576 281C686.601 281 685 282.601 685 284.577C685 286.552 686.601 288.153 688.576 288.153Z" fill="#6C63FF"/>
<path d="M583.576 11.153C585.552 11.153 587.153 9.55175 587.153 7.57651C587.153 5.60127 585.552 4 583.576 4C581.601 4 580 5.60127 580 7.57651C580 9.55175 581.601 11.153 583.576 11.153Z" fill="#6C63FF"/>
<path d="M330.576 113.153C332.552 113.153 334.153 111.552 334.153 109.577C334.153 107.601 332.552 106 330.576 106C328.601 106 327 107.601 327 109.577C327 111.552 328.601 113.153 330.576 113.153Z" fill="#6C63FF"/>
<path d="M434.576 86.153C436.552 86.153 438.153 84.5517 438.153 82.5765C438.153 80.6013 436.552 79 434.576 79C432.601 79 431 80.6013 431 82.5765C431 84.5517 432.601 86.153 434.576 86.153Z" fill="#6C63FF"/>
<path d="M333.576 685.153C335.552 685.153 337.153 683.552 337.153 681.577C337.153 679.601 335.552 678 333.576 678C331.601 678 330 679.601 330 681.577C330 683.552 331.601 685.153 333.576 685.153Z" fill="#6C63FF"/>
<path d="M323.576 345.153C325.552 345.153 327.153 343.552 327.153 341.577C327.153 339.601 325.552 338 323.576 338C321.601 338 320 339.601 320 341.577C320 343.552 321.601 345.153 323.576 345.153Z" fill="#6C63FF"/>
<path d="M874.576 96.153C876.552 96.153 878.153 94.5517 878.153 92.5765C878.153 90.6013 876.552 89 874.576 89C872.601 89 871 90.6013 871 92.5765C871 94.5517 872.601 96.153 874.576 96.153Z" fill="#6C63FF"/>
<rect width="686.942" height="816.11" transform="matrix(-0.0222415 0.999753 -0.999101 -0.0424047 1129 786.091)" fill="#2A5725"/>
<path d="M763.197 1207.61C772.871 1217.46 773.615 1234.1 764.859 1244.77L448.403 1630.6L-112 1059.91L204.456 674.086C213.212 663.411 228.152 662.743 237.826 672.594L763.197 1207.61Z" fill="#1F4D1B"/>
<path d="M1663.78 634L1748.51 1243.52L1096.98 1346.2L1015.7 761.44C1013.8 747.765 1023.31 734.936 1036.95 732.786L1663.78 634Z" fill="#1F691F"/>
<path opacity="0.1" d="M883 592L959.5 529L1083.5 435.5L1095 423.5L1108 415.5L1116.1 407L1126.5 397.5L1235.5 318.5L1331.96 241L1438.5 299L1396 383.5L1331.96 497L1147.64 813L562 793.5L883 592Z" fill="#F2F2F2"/>
<path d="M1390.19 323.385C1426.75 323.385 1456.39 293.75 1456.39 257.193C1456.39 220.635 1426.75 191 1390.19 191C1353.64 191 1324 220.635 1324 257.193C1324 293.75 1353.64 323.385 1390.19 323.385Z" fill="#E6E6E6"/>
<path d="M1383.68 219.213C1387.88 219.213 1391.28 215.812 1391.28 211.617C1391.28 207.422 1387.88 204.021 1383.68 204.021C1379.49 204.021 1376.09 207.422 1376.09 211.617C1376.09 215.812 1379.49 219.213 1383.68 219.213Z" fill="#CBCBCB"/>
<path d="M1396.7 295.172C1400.9 295.172 1404.3 291.771 1404.3 287.576C1404.3 283.381 1400.9 279.98 1396.7 279.98C1392.51 279.98 1389.11 283.381 1389.11 287.576C1389.11 291.771 1392.51 295.172 1396.7 295.172Z" fill="#CBCBCB"/>
<path d="M1426 250.682C1429 250.682 1431.43 248.253 1431.43 245.256C1431.43 242.26 1429 239.831 1426 239.831C1423.01 239.831 1420.58 242.26 1420.58 245.256C1420.58 248.253 1423.01 250.682 1426 250.682Z" fill="#CBCBCB"/>
<path d="M1364.15 279.98C1373.74 279.98 1381.51 272.207 1381.51 262.618C1381.51 253.029 1373.74 245.256 1364.15 245.256C1354.56 245.256 1346.79 253.029 1346.79 262.618C1346.79 272.207 1354.56 279.98 1364.15 279.98Z" fill="#CBCBCB"/>
<path opacity="0.1" d="M444.907 782.936C445.671 782.936 446.403 782.633 446.942 782.093C447.482 781.553 447.785 780.822 447.785 780.058C447.785 779.295 447.482 778.563 446.942 778.024C446.403 777.484 445.671 777.181 444.907 777.181H421.248C422.011 778.707 422.136 780.474 421.597 782.093C421.057 783.712 419.896 785.05 418.37 785.813C418.37 786.577 418.673 787.308 419.213 787.848C419.753 788.388 420.484 788.691 421.248 788.691H444.907C445.671 788.691 446.403 788.388 446.942 787.848C447.482 787.308 447.785 786.577 447.785 785.813C447.785 785.05 447.482 784.318 446.942 783.779C446.403 783.239 445.671 782.936 444.907 782.936Z" fill="#F2F2F2"/>
<path d="M388.673 776.998C389.078 792.691 379.585 788.691 368.078 788.691C356.57 788.691 347.078 790.691 347 776.998C346.962 770.256 356.398 768.789 367.905 768.789C379.413 768.789 388.5 770.258 388.673 776.998Z" fill="#3F3D56"/>
<path d="M415.595 783.2C415.409 783.101 415.207 783.036 414.999 783.008C413.954 782.842 412.92 782.621 411.899 782.345C410.874 782.067 409.933 781.543 409.156 780.819C408.866 780.479 408.542 780.169 408.19 779.894C408.011 779.759 407.797 779.678 407.573 779.662C407.35 779.646 407.126 779.695 406.93 779.803C406.89 779.835 406.852 779.87 406.818 779.909C406.676 779.815 406.533 779.721 406.39 779.626C405.628 779.125 404.863 778.629 404.094 778.139L404.063 778.12C404.085 777.999 404.086 777.875 404.065 777.754C403.931 777.357 403.66 777.02 403.3 776.804C404.292 776.794 405.289 776.704 406.275 776.6C407.214 776.616 408.122 776.261 408.801 775.612C408.904 775.5 408.966 775.356 408.977 775.204C408.979 774.893 408.658 774.69 408.37 774.573C407.988 774.416 407.59 774.299 407.184 774.222C406.9 774.183 406.619 774.124 406.342 774.047C406.096 773.957 405.859 773.845 405.634 773.712C405.145 773.443 404.656 773.174 404.167 772.905C403.959 772.804 403.768 772.671 403.6 772.511C403.351 772.248 403.241 771.876 402.987 771.617C402.754 771.378 401.808 771.064 401.673 771.553C401.62 771.746 401.823 771.96 401.848 772.175C401.521 771.97 401.182 771.784 400.833 771.618C400.852 771.575 400.877 771.536 400.894 771.491C399.271 770.19 397.983 768.522 397.134 766.623C397.28 766.627 397.425 766.636 397.57 766.635C397.818 766.658 398.066 766.597 398.275 766.463C398.361 766.384 398.428 766.287 398.471 766.179C398.515 766.071 398.533 765.954 398.524 765.838C398.506 765.606 398.449 765.379 398.356 765.165C398.148 764.525 397.818 763.932 397.382 763.419C396.961 763.011 396.48 762.67 395.956 762.406L395.872 762.358C395.836 762.25 395.804 762.141 395.761 762.036C395.445 761.379 395.088 760.744 394.691 760.133C394.133 759.11 393.722 758.014 393.468 756.876C393.375 756.183 393.109 755.525 392.697 754.961C391.933 754.12 390.625 754.141 389.496 754.268C388.852 754.341 388.211 754.437 387.571 754.537C387.565 754.521 387.565 754.503 387.558 754.487C387.478 754.337 387.428 754.172 387.411 754.002C387.427 753.863 387.457 753.726 387.502 753.593C387.536 753.429 387.528 753.258 387.48 753.097C387.431 752.936 387.342 752.79 387.222 752.672C387.195 752.646 387.169 752.618 387.142 752.59C387.213 752.423 387.277 752.256 387.336 752.087C387.389 752.024 387.429 751.952 387.453 751.873C387.478 751.795 387.486 751.712 387.477 751.631C387.593 751.221 387.655 750.798 387.66 750.372C387.528 749.431 387.494 748.479 387.559 747.531C387.525 747.296 387.44 747.072 387.309 746.874C387.285 746.842 387.246 746.828 387.22 746.8C387.414 746.542 387.64 746.308 387.89 746.103C388.383 745.723 388.91 745.389 389.465 745.106C389.598 745.032 389.783 744.98 389.91 744.897C390.105 744.929 390.301 744.949 390.499 744.956C391.231 744.96 391.954 744.785 392.604 744.446C393.254 744.107 393.81 743.614 394.225 743.01C394.64 742.406 394.901 741.709 394.985 740.981C395.069 740.253 394.973 739.515 394.706 738.833C394.91 738.783 395.101 738.694 395.269 738.57C395.437 738.446 395.579 738.289 395.686 738.11C395.906 737.728 396.037 737.303 396.071 736.864C396.106 736.696 396.107 736.522 396.075 736.353C396.043 736.184 395.977 736.023 395.883 735.879C395.714 735.716 395.521 735.581 395.31 735.479C395.019 735.297 394.775 735.05 394.597 734.756C394.47 734.548 394.38 734.32 394.266 734.104C394.077 733.704 393.783 733.363 393.414 733.119C393.045 732.874 392.617 732.736 392.175 732.718C391.755 732.771 391.339 732.854 390.931 732.966C389.531 733.211 388.009 732.47 386.71 733.048C386.391 733.204 386.094 733.402 385.827 733.637C385.462 733.939 385.11 734.256 384.773 734.59C384.48 734.84 384.258 735.162 384.13 735.525C383.954 736.188 384.373 736.928 384.106 737.56C384.015 737.741 383.906 737.912 383.781 738.071C383.486 738.503 383.806 740.19 383.774 740.712C383.736 740.968 383.801 741.228 383.954 741.436C383.994 741.475 384.038 741.509 384.086 741.536C381.908 742.313 379.778 743.219 377.707 744.247C375.22 745.45 373.156 747.378 371.787 749.777C371.435 750.462 371.168 751.187 370.85 751.889C370.426 752.825 369.913 753.717 369.401 754.608C368.776 755.694 368.15 756.783 367.427 757.807C367.015 758.349 366.634 758.915 366.285 759.5C366.275 759.586 366.273 759.671 366.277 759.757C366.291 759.838 366.283 759.921 366.254 759.998C366.222 760.042 366.182 760.079 366.135 760.106C366.087 760.133 366.035 760.15 365.98 760.154L365.963 760.198C365.8 760.724 365.665 761.259 365.558 761.799C365.345 762.658 365.004 763.488 364.874 764.363C364.798 764.473 364.755 764.602 364.752 764.736C364.749 764.869 364.785 765 364.856 765.114C364.927 765.227 365.029 765.317 365.151 765.372C365.272 765.427 365.407 765.446 365.539 765.425C366.288 765.759 367.01 766.149 367.729 766.542C367.719 766.595 367.702 766.646 367.696 766.7C367.672 767.257 367.806 767.809 368.083 768.293C368.36 768.776 368.768 769.172 369.26 769.433C370.253 769.94 371.34 770.236 372.453 770.301C372.884 770.353 373.318 770.377 373.75 770.421C374.381 770.772 375.052 771.044 375.749 771.231C375.901 771.275 376.058 771.3 376.217 771.304C376.429 771.29 376.635 771.228 376.82 771.124C377.005 771.02 377.164 770.875 377.286 770.702C381.004 770.907 384.733 770.831 388.44 770.474C389.466 770.235 390.545 770.402 391.45 770.941C392.254 771.594 392.416 772.752 393.013 773.599C393.448 774.121 393.935 774.597 394.468 775.018C395.527 776.139 396.463 777.369 397.261 778.689C398.066 780.021 399.233 781.098 400.625 781.794C400.876 781.395 401.239 781.079 401.67 780.886C401.781 780.82 401.887 780.742 401.997 780.671C402.144 780.91 402.315 781.133 402.507 781.337C402.65 781.492 402.793 781.655 402.927 781.824C402.923 781.825 402.919 781.822 402.915 781.823C402.72 781.853 402.655 782.097 402.633 782.293C402.547 783.042 402.461 783.792 402.376 784.542C402.345 784.69 402.356 784.844 402.406 784.986C402.498 785.141 402.641 785.26 402.81 785.322C403.506 785.656 404.259 785.854 405.029 785.907C405.416 785.934 405.806 785.923 406.192 785.957C406.827 786.039 407.455 786.164 408.072 786.332C409.752 786.715 411.48 786.851 413.199 786.734C413.554 786.725 413.906 786.658 414.239 786.537C414.634 786.347 414.984 786.076 415.266 785.742C415.624 785.402 415.89 784.976 416.038 784.505C416.107 784.268 416.101 784.016 416.022 783.783C415.943 783.549 415.794 783.346 415.595 783.2Z" fill="#3F3D56"/>
<path d="M387.931 732.966C388.097 732.937 388.261 732.891 388.425 732.849C387.898 732.784 387.364 732.836 386.859 733C387.217 733.033 387.577 733.021 387.931 732.966Z" fill="#FF6584"/>
<path d="M391.266 734.104C391.38 734.32 391.471 734.548 391.597 734.756C391.775 735.05 392.019 735.297 392.31 735.479C392.521 735.581 392.715 735.716 392.883 735.879C392.978 736.023 393.043 736.184 393.076 736.353C393.108 736.522 393.106 736.696 393.071 736.864C393.038 737.303 392.906 737.728 392.687 738.11C392.58 738.289 392.438 738.446 392.269 738.57C392.101 738.694 391.91 738.783 391.707 738.833C392.014 739.561 392.121 740.358 392.015 741.141C391.909 741.925 391.594 742.665 391.104 743.285C390.613 743.905 389.965 744.381 389.228 744.665C388.49 744.948 387.69 745.028 386.91 744.897C386.783 744.98 386.598 745.032 386.465 745.106C385.911 745.389 385.384 745.723 384.891 746.103C384.64 746.308 384.415 746.542 384.22 746.8C384.247 746.828 384.286 746.842 384.309 746.874C384.44 747.072 384.526 747.296 384.559 747.531C384.495 748.479 384.529 749.431 384.66 750.372C384.655 750.798 384.594 751.221 384.477 751.631C384.486 751.712 384.478 751.795 384.454 751.873C384.43 751.952 384.39 752.024 384.337 752.087C384.277 752.256 384.213 752.423 384.143 752.59C384.169 752.618 384.195 752.646 384.222 752.672C384.342 752.79 384.431 752.936 384.48 753.097C384.529 753.258 384.536 753.429 384.502 753.593C384.458 753.726 384.427 753.863 384.411 754.002C384.428 754.172 384.478 754.337 384.559 754.487C384.565 754.503 384.565 754.521 384.572 754.537C385.212 754.437 385.853 754.341 386.496 754.268C386.814 754.231 387.132 754.21 387.452 754.205C387.428 754.14 387.414 754.071 387.411 754.002C387.427 753.863 387.458 753.726 387.502 753.593C387.536 753.429 387.529 753.258 387.48 753.097C387.431 752.936 387.342 752.79 387.222 752.672C387.195 752.646 387.169 752.618 387.143 752.59C387.213 752.423 387.278 752.256 387.337 752.087C387.39 752.024 387.43 751.952 387.454 751.873C387.478 751.795 387.486 751.712 387.477 751.631C387.594 751.221 387.655 750.798 387.66 750.372C387.529 749.431 387.495 748.479 387.559 747.531C387.526 747.296 387.44 747.072 387.309 746.874C387.286 746.842 387.247 746.828 387.22 746.8C387.415 746.542 387.64 746.308 387.891 746.103C388.384 745.723 388.911 745.389 389.465 745.106C389.598 745.032 389.783 744.98 389.91 744.897C390.105 744.929 390.302 744.949 390.499 744.956C391.232 744.96 391.955 744.785 392.604 744.446C393.254 744.107 393.811 743.614 394.226 743.01C394.641 742.406 394.902 741.709 394.985 740.981C395.069 740.253 394.974 739.515 394.707 738.833C394.91 738.783 395.101 738.694 395.269 738.57C395.438 738.446 395.58 738.289 395.687 738.11C395.906 737.728 396.038 737.303 396.071 736.864C396.106 736.696 396.108 736.522 396.076 736.353C396.043 736.184 395.978 736.023 395.883 735.879C395.715 735.716 395.521 735.581 395.31 735.479C395.019 735.297 394.775 735.05 394.597 734.756C394.471 734.548 394.38 734.32 394.266 734.104C394.078 733.704 393.783 733.363 393.414 733.119C393.046 732.874 392.617 732.736 392.175 732.718C391.755 732.771 391.339 732.854 390.931 732.966C390.702 733.002 390.47 733.017 390.238 733.011C390.674 733.275 391.03 733.653 391.266 734.104Z" fill="#FF6584"/>
<path d="M415.595 783.2C415.409 783.101 415.207 783.036 414.999 783.008C413.955 782.842 412.92 782.621 411.899 782.345C410.874 782.067 409.933 781.543 409.156 780.819C408.866 780.479 408.542 780.169 408.19 779.894C408.011 779.759 407.797 779.678 407.573 779.662C407.35 779.646 407.126 779.695 406.93 779.803C406.89 779.835 406.852 779.87 406.818 779.909C406.676 779.815 406.533 779.72 406.39 779.626C405.628 779.125 404.863 778.629 404.094 778.139L404.063 778.12C404.085 777.999 404.086 777.875 404.065 777.754C403.931 777.356 403.66 777.02 403.3 776.804C404.292 776.794 405.289 776.704 406.275 776.6C407.214 776.616 408.122 776.261 408.801 775.612C408.904 775.499 408.966 775.356 408.977 775.204C408.979 774.893 408.658 774.69 408.371 774.573C407.988 774.416 407.59 774.299 407.184 774.222C406.9 774.183 406.619 774.124 406.342 774.047C406.096 773.957 405.859 773.845 405.634 773.712C405.145 773.443 404.656 773.174 404.168 772.905C403.959 772.804 403.768 772.671 403.6 772.511C403.351 772.248 403.241 771.875 402.987 771.617C402.754 771.378 401.808 771.064 401.673 771.553C401.62 771.746 401.824 771.959 401.848 772.175C401.521 771.97 401.182 771.784 400.833 771.618C400.852 771.575 400.877 771.535 400.894 771.491C399.271 770.19 397.983 768.522 397.134 766.623C397.28 766.627 397.425 766.636 397.57 766.635C397.818 766.658 398.066 766.597 398.275 766.463C398.361 766.384 398.428 766.287 398.471 766.179C398.515 766.071 398.533 765.954 398.524 765.838C398.506 765.606 398.449 765.379 398.356 765.165C398.148 764.525 397.818 763.932 397.382 763.419C396.961 763.011 396.48 762.67 395.956 762.406L395.872 762.358C395.836 762.25 395.804 762.141 395.761 762.036C395.445 761.379 395.088 760.744 394.691 760.133C394.133 759.11 393.722 758.014 393.468 756.876C393.375 756.183 393.109 755.525 392.697 754.961C391.933 754.119 390.625 754.141 389.496 754.268C389.244 754.296 388.994 754.339 388.742 754.373C389.107 754.48 389.437 754.683 389.697 754.961C390.11 755.525 390.375 756.183 390.469 756.876C390.722 758.014 391.133 759.11 391.691 760.133C392.088 760.744 392.445 761.379 392.761 762.036C392.804 762.141 392.836 762.25 392.872 762.358L392.956 762.406C393.48 762.67 393.961 763.011 394.382 763.419C394.818 763.932 395.148 764.525 395.356 765.165C395.449 765.379 395.506 765.606 395.524 765.838C395.533 765.954 395.515 766.071 395.471 766.179C395.428 766.287 395.361 766.384 395.275 766.463C395.066 766.597 394.818 766.658 394.57 766.635C394.425 766.636 394.28 766.627 394.134 766.623C394.983 768.522 396.272 770.19 397.894 771.491C397.878 771.535 397.852 771.575 397.833 771.618C398.182 771.784 398.521 771.97 398.848 772.175C398.824 771.959 398.62 771.746 398.673 771.553C398.808 771.064 399.754 771.378 399.988 771.617C400.241 771.875 400.351 772.248 400.6 772.511C400.768 772.671 400.959 772.804 401.168 772.905C401.656 773.174 402.145 773.443 402.634 773.712C402.859 773.845 403.096 773.957 403.342 774.047C403.619 774.124 403.9 774.183 404.184 774.222C404.59 774.299 404.988 774.416 405.371 774.573C405.658 774.69 405.979 774.893 405.977 775.204C405.966 775.356 405.904 775.499 405.801 775.612C405.122 776.261 404.214 776.616 403.275 776.6C402.289 776.704 401.292 776.794 400.3 776.804C400.66 777.02 400.931 777.356 401.065 777.754C401.086 777.875 401.085 777.999 401.063 778.12L401.094 778.139C401.863 778.629 402.628 779.125 403.39 779.626C403.533 779.72 403.676 779.815 403.818 779.909C403.852 779.87 403.89 779.835 403.93 779.803C404.126 779.695 404.35 779.646 404.573 779.662C404.797 779.678 405.011 779.759 405.19 779.894C405.542 780.169 405.866 780.479 406.156 780.819C406.933 781.543 407.874 782.067 408.899 782.345C409.92 782.621 410.955 782.842 411.999 783.008C412.207 783.036 412.409 783.101 412.595 783.2C412.794 783.346 412.943 783.549 413.022 783.783C413.102 784.016 413.107 784.268 413.038 784.505C412.89 784.976 412.624 785.402 412.266 785.742C411.984 786.076 411.634 786.347 411.239 786.537C410.995 786.629 410.739 786.686 410.478 786.704C411.383 786.784 412.293 786.794 413.199 786.734C413.554 786.725 413.906 786.658 414.239 786.537C414.634 786.347 414.984 786.076 415.266 785.742C415.624 785.402 415.89 784.976 416.038 784.505C416.107 784.268 416.101 784.016 416.022 783.783C415.943 783.549 415.794 783.346 415.595 783.2Z" fill="#FF6584"/>
<path d="M398.959 780.696C399.009 780.742 399.057 780.788 399.108 780.832C399.071 780.778 399.03 780.727 398.997 780.671L398.959 780.696Z" fill="#FF6584"/>
<path d="M443.629 772.385C443.629 782.98 438.905 780.058 433.078 780.058C427.251 780.058 422.527 782.98 422.527 772.385C422.527 761.79 433.078 741.691 433.078 741.691C433.078 741.691 443.629 761.79 443.629 772.385Z" fill="#FF6584"/>
<path opacity="0.1" d="M437.874 776.439C437.874 781.254 435.726 779.927 433.078 779.927C430.429 779.927 428.282 781.254 428.282 776.439C428.282 771.623 433.078 762.487 433.078 762.487C433.078 762.487 437.874 771.623 437.874 776.439Z" fill="black"/>
<path d="M446.303 744.075C446.303 744.075 448.495 741.796 448.451 739.56L446.303 744.075Z" fill="#FF6584"/>
<path d="M423.839 725.083C423.839 725.083 422.924 722.056 420.953 721L423.839 725.083Z" fill="#FF6584"/>
<path d="M401.839 684.083C401.839 684.083 400.924 681.056 398.953 680L401.839 684.083Z" fill="#FF6584"/>
<path d="M427.839 739.083C427.839 739.083 426.924 736.056 424.953 735L427.839 739.083Z" fill="#FF6584"/>
<path d="M424.839 690.083C424.839 690.083 423.924 687.056 421.953 686L424.839 690.083Z" fill="#FF6584"/>
<path d="M418.839 708.083C418.839 708.083 417.924 705.056 415.953 704L418.839 708.083Z" fill="#FF6584"/>
<path d="M444.303 775.075C444.303 775.075 446.495 772.796 446.451 770.56L444.303 775.075Z" fill="#FF6584"/>
<path d="M448.303 758.075C448.303 758.075 450.495 755.796 450.451 753.56L448.303 758.075Z" fill="#FF6584"/>
<path d="M420.919 755.216L396.919 763.216L397.236 764.166L421.236 756.166L420.919 755.216Z" fill="#FF6584"/>
<path d="M419.177 756.17C420.078 759.691 418.565 758.85 417.186 759.135C415.806 759.421 416.078 760.691 414.181 757.204C412.87 754.793 414.793 754.525 416.172 754.239C417.552 753.954 418.562 753.766 419.177 756.17Z" fill="#FF6584"/>
<defs>
<linearGradient id="paint0_linear_53_1024" x1="965" y1="77.8216" x2="1051.81" y2="77.8216" gradientUnits="userSpaceOnUse">
<stop stop-color="white"/>
<stop offset="1" stop-color="white" stop-opacity="0.3"/>
</linearGradient>
<linearGradient id="paint1_linear_53_1024" x1="696" y1="64.8216" x2="782.81" y2="64.8216" gradientUnits="userSpaceOnUse">
<stop stop-color="white"/>
<stop offset="1" stop-color="white" stop-opacity="0.3"/>
</linearGradient>
<linearGradient id="paint2_linear_53_1024" x1="1193" y1="265.822" x2="1279.81" y2="265.822" gradientUnits="userSpaceOnUse">
<stop stop-color="white"/>
<stop offset="1" stop-color="white" stop-opacity="0.3"/>
</linearGradient>
<linearGradient id="paint3_linear_53_1024" x1="1397" y1="484.822" x2="1483.81" y2="484.822" gradientUnits="userSpaceOnUse">
<stop stop-color="white"/>
<stop offset="1" stop-color="white" stop-opacity="0.3"/>
</linearGradient>
<linearGradient id="paint4_linear_53_1024" x1="1154" y1="88.8216" x2="1240.81" y2="88.8216" gradientUnits="userSpaceOnUse">
<stop stop-color="white"/>
<stop offset="1" stop-color="white" stop-opacity="0.3"/>
</linearGradient>
<linearGradient id="paint5_linear_53_1024" x1="300" y1="493.822" x2="386.81" y2="493.822" gradientUnits="userSpaceOnUse">
<stop stop-color="white"/>
<stop offset="1" stop-color="white" stop-opacity="0.3"/>
</linearGradient>
<linearGradient id="paint6_linear_53_1024" x1="521" y1="307.822" x2="607.81" y2="307.822" gradientUnits="userSpaceOnUse">
<stop stop-color="white"/>
<stop offset="1" stop-color="white" stop-opacity="0.3"/>
</linearGradient>
<linearGradient id="paint7_linear_53_1024" x1="291" y1="265.822" x2="377.81" y2="265.822" gradientUnits="userSpaceOnUse">
<stop stop-color="white"/>
<stop offset="1" stop-color="white" stop-opacity="0.3"/>
</linearGradient>
<linearGradient id="paint8_linear_53_1024" x1="773" y1="281.822" x2="859.81" y2="281.822" gradientUnits="userSpaceOnUse">
<stop stop-color="white"/>
<stop offset="1" stop-color="white" stop-opacity="0.3"/>
</linearGradient>
</defs>
</svg>
