<svg width="1034" height="412" viewBox="0 0 1034 412" fill="none" xmlns="http://www.w3.org/2000/svg">
<path d="M741 423.5C741 456.085 648.323 482.5 534 482.5C419.677 482.5 327 456.085 327 423.5C327 390.915 419.677 364.5 534 364.5C648.323 364.5 741 390.915 741 423.5Z" fill="#2A8F47"/>
<path d="M570.371 456.355V456.361C570.77 456.757 571.188 457.136 571.621 457.493C576.149 461.215 579.777 464.248 584.039 466.522C598.692 468.18 613.364 469.615 628.056 470.828C665.871 473.946 703.759 475.603 741.722 475.801C818.735 476.254 899.705 479.026 967.135 436.027C989.571 421.719 1022.07 451.06 1044.3 435.37C1050.71 430.833 1056.66 425.5 1062.05 419.466C1063.51 413.315 1064.57 407.048 1065.21 400.716C1067 383.613 1065.74 366.272 1061.52 349.745C1059.47 341.838 1056.69 334.211 1053.2 327C1042.88 331.26 1032.97 337.393 1023.55 343.889C1006.26 355.787 989.455 369.298 970.206 376.11C941.831 386.153 911.133 380.631 882.34 372.325C853.547 364.019 824.946 352.953 795.272 352.019C755.474 350.769 717.166 367.804 680.119 384.569C642.954 401.389 605.784 418.208 568.609 435.025C567.792 437.577 567.062 440.166 566.419 442.793C565.105 448.134 567.009 452.972 570.371 456.355Z" fill="#1F7F44"/>
<path d="M962 387.134C962 387.21 962.058 387.271 962.13 387.271H1041.87C1041.94 387.271 1042 387.21 1042 387.134C1042 387.058 1041.94 386.997 1041.87 386.997H962.13C962.058 386.997 962 387.058 962 387.134Z" fill="#3F3D56"/>
<path d="M1006.32 380.228V384.762L1009.57 384.873L1009.43 380.228H1006.32Z" fill="#FFB6B6"/>
<path d="M1005.68 382.75C1005.63 382.75 1005.59 382.756 1005.55 382.769C1004.96 382.945 1001.56 386.144 1000.54 387.119C1000.41 387.24 1000.34 387.412 1000.35 387.592C1000.36 387.77 1000.45 387.933 1000.58 388.038C1001.36 388.629 1002.96 389.566 1004.89 389.187C1005.78 389.013 1006.68 388.904 1007.48 388.808C1009.17 388.602 1010.51 388.438 1010.51 387.805C1010.51 386.729 1010.23 383.896 1009.88 383.778C1009.85 383.767 1009.81 383.794 1009.77 383.856C1009.23 384.65 1007.38 384.228 1007.3 384.21L1007.28 384.205L1007.27 384.187C1007.26 384.172 1006.36 382.753 1005.68 382.753V382.75Z" fill="#2F2E41"/>
<path d="M1000.24 380.228V384.762L1003.49 384.873L1003.35 380.228H1000.24Z" fill="#FFB6B6"/>
<path d="M998.925 347.767L997.194 349.149L996.879 364.744L999.816 381.776L1003.64 381.942L1003.75 365.683L1008.68 350.864L1007.68 347.38L998.925 347.767Z" fill="#2F2E41"/>
<path d="M1007 350.421L1008.68 350.864L1009.89 381.776L1005.53 381.389L1002.65 359.545L1007 350.421Z" fill="#2F2E41"/>
<path d="M997.915 389.385C996.422 389.385 995.211 388.689 994.564 388.22C994.368 388.078 994.246 387.853 994.231 387.603C994.216 387.351 994.309 387.109 994.487 386.939C996.094 385.415 998.874 382.832 999.435 382.663C1000.16 382.442 1001.14 383.909 1001.26 384.104C1001.47 384.148 1003.13 384.483 1003.6 383.789C1003.69 383.656 1003.78 383.651 1003.83 383.669C1004.33 383.839 1004.54 387.247 1004.54 387.803C1004.54 388.535 1003.22 388.695 1001.4 388.916C1000.61 389.013 999.716 389.122 998.829 389.295C998.514 389.356 998.209 389.383 997.914 389.383L997.915 389.385Z" fill="#2F2E41"/>
<path d="M985.649 327.59C985.093 326.297 985.302 324.941 986.116 324.564C986.929 324.187 988.039 324.931 988.594 326.225C988.823 326.74 988.928 327.305 988.898 327.873L991.184 333.389L988.605 334.48L986.626 328.927C986.2 328.569 985.864 328.112 985.649 327.592C985.649 327.592 985.649 327.59 985.649 327.59Z" fill="#FFB6B6"/>
<path d="M1001.45 329.932C1002.84 331.318 1002.75 333.682 1001.26 334.949L993.956 341.154C993.159 341.831 991.976 341.593 991.473 340.652C989.554 337.375 989.193 337.195 988.076 333.838L991.222 332.678L992.995 335.019L996.868 330.202C998.038 328.746 1000.13 328.624 1001.44 329.932L1001.45 329.932Z" fill="#6C63FF"/>
<path d="M1002.52 327.569L1003.71 330.106L999.2 332.405L999.255 328.337L1002.52 327.569Z" fill="#FFB6B6"/>
<path d="M999.216 329.488C1001.46 329.488 1003.28 327.57 1003.28 325.204C1003.28 322.837 1001.46 320.919 999.216 320.919C996.972 320.919 995.153 322.837 995.153 325.204C995.153 327.57 996.972 329.488 999.216 329.488Z" fill="#FFB6B6"/>
<path d="M999.188 331.416L1003.35 328.821C1006.41 331.081 1008.95 331.609 1009.03 335.543L1008.47 344.927L1008.5 348.968C1008.52 350.666 1007.22 352.048 1005.61 352.048H999.661C998.086 352.048 996.914 350.517 997.245 348.893L998.368 343.395L997.169 332.679L999.188 331.414V331.416Z" fill="#6C63FF"/>
<path d="M975.962 326.032C975.962 325.807 976.134 325.626 976.346 325.626H980.688C980.901 325.626 981.073 325.808 981.073 326.032V326.087L991.781 326.748C991.811 326.62 991.921 326.524 992.053 326.524H993.191V325.647C993.191 325.451 993.342 325.293 993.527 325.293H993.759V324.518C993.759 324.394 993.854 324.294 993.971 324.294H994.619C994.736 324.294 994.831 324.394 994.831 324.518V325.293H995.044C995.029 325.261 995.02 325.228 995.02 325.192C995.02 325.027 995.204 324.892 995.43 324.892C995.657 324.892 995.84 325.026 995.84 325.192C995.84 325.235 995.827 325.276 995.805 325.313C995.936 325.362 996.031 325.492 996.031 325.647V330.196C996.031 330.392 995.88 330.55 995.695 330.55H993.527C993.341 330.55 993.191 330.391 993.191 330.196V329.585H992.053C991.906 329.585 991.787 329.466 991.774 329.315L981.056 331.397C981.006 331.561 980.861 331.681 980.688 331.681H976.346C976.133 331.681 975.962 331.499 975.962 331.276C975.91 329.419 976.024 327.656 975.962 326.032Z" fill="#3F3D56"/>
<path d="M992.728 328.889C992.187 327.588 992.411 326.236 993.229 325.868C994.046 325.501 995.147 326.258 995.689 327.559C995.912 328.076 996.01 328.642 995.974 329.211L998.198 334.754L995.608 335.814L993.69 330.237C993.267 329.875 992.937 329.412 992.728 328.889Z" fill="#FFB6B6"/>
<path d="M1008.5 331.425C1009.87 332.829 1009.76 335.191 1008.26 336.44L1000.88 342.554C1000.08 343.222 998.9 342.968 998.406 342.022C996.524 338.722 996.372 339.17 995.292 335.799L998.195 333.869L999.991 336.409L1003.92 331.64C1005.1 330.199 1007.19 330.102 1008.5 331.427H1008.5C1008.5 331.427 1008.5 331.425 1008.5 331.425Z" fill="#6C63FF"/>
<path d="M1003.39 327.359L1002.64 327.926C1002.64 327.926 1002.42 325.453 1002.12 325.343C1001.81 325.234 1001.4 325.803 1001.4 325.803L1001.1 326.732L1000.11 326.295C1000.11 326.295 998.955 325.641 998.549 325.494C998.142 325.348 998.203 324.105 998.203 324.105C998.203 324.105 993.322 324.809 994.055 321.843C994.055 321.843 994.307 319.66 994.848 320.094C995.388 320.527 995.395 319.453 995.395 319.453L996.62 319.175C996.62 319.175 998.301 316.788 1001.62 318.818C1004.93 320.849 1003.39 327.356 1003.39 327.356V327.359H1003.39Z" fill="#2F2E41"/>
<path d="M575.458 284.61C573.988 285.464 572.271 285.411 570.665 285.519C569.059 285.627 567.515 285.855 566.351 287.094C565.148 288.375 564.902 290.299 565.204 292.067C565.541 294.054 566.503 295.715 567.642 297.23C568.866 298.861 570.264 300.369 571.158 302.281C571.948 303.971 572.205 305.9 571.981 307.791C571.52 311.709 569.269 315.164 566.415 317.31C563.129 319.783 559.222 320.852 555.408 321.732C554.923 321.845 554.438 321.953 553.954 322.062C553.646 322.13 553.776 322.664 554.082 322.595C557.925 321.737 561.86 320.838 565.335 318.69C566.933 317.704 568.403 316.454 569.585 314.874C570.69 313.397 571.563 311.682 572.073 309.826C572.583 307.97 572.699 306.105 572.328 304.272C571.919 302.252 570.866 300.568 569.688 299.029C568.51 297.489 567.12 295.98 566.312 294.089C565.621 292.474 565.22 290.392 565.919 288.693C566.62 286.99 568.173 286.351 569.717 286.158C571.339 285.957 573.011 286.088 574.596 285.579C574.977 285.457 575.349 285.291 575.701 285.085C575.98 284.924 575.735 284.446 575.456 284.608L575.458 284.61Z" fill="#6C63FF"/>
<path d="M504 386.737C504 386.883 504.103 387 504.232 387H554.623C554.752 387 554.855 386.883 554.855 386.737C554.855 386.591 554.752 386.474 554.623 386.474H504.232C504.103 386.474 504 386.591 504 386.737Z" fill="#3F3D58"/>
<path d="M590.145 386.737C590.145 386.883 590.248 387 590.377 387H640.768C640.897 387 641 386.883 641 386.737C641 386.591 640.897 386.474 640.768 386.474H590.377C590.248 386.474 590.145 386.591 590.145 386.737Z" fill="#3F3D58"/>
<path d="M575.222 286.07L595.808 250.098L575.222 232L554.635 250.098L575.222 286.07Z" fill="#6C63FF"/>
<path d="M575.318 232H575.124V286.07H575.318V232Z" fill="#2F2E43"/>
<path d="M554.676 250.197L554.594 249.996C554.647 249.969 559.892 247.215 567.56 245.848C574.639 244.587 585.296 244.284 595.851 249.996L595.768 250.195C585.259 244.508 574.647 244.811 567.595 246.065C559.952 247.425 554.727 250.166 554.676 250.195V250.197Z" fill="#2F2E43"/>
<path d="M542.687 331.092L546.026 330.988L544.48 326.104L541.771 327.21L542.687 331.092Z" fill="#FAAFB2"/>
<path d="M543.47 327.82C545.217 327.82 546.633 326.211 546.633 324.225C546.633 322.24 545.217 320.63 543.47 320.63C541.723 320.63 540.306 322.24 540.306 324.225C540.306 326.211 541.723 327.82 543.47 327.82Z" fill="#FAAFB2"/>
<path d="M540.435 384.317H542.913V380.322H540.435V384.317Z" fill="#FAAFB2"/>
<path d="M542.636 386.606C542.212 386.65 540.092 386.841 539.987 386.288C539.89 385.781 540.032 385.25 540.053 385.179C540.257 382.874 540.333 382.85 540.378 382.835C540.45 382.81 540.66 382.923 541.003 383.175L541.025 383.191L541.028 383.219C541.034 383.255 541.186 384.102 541.904 383.972C542.397 383.883 542.557 383.759 542.607 383.699C542.564 383.677 542.514 383.64 542.477 383.576C542.424 383.483 542.415 383.361 542.45 383.215C542.543 382.832 542.819 382.266 542.831 382.242L542.862 382.177L545.679 384.337L547.418 384.901C547.548 384.943 547.655 385.049 547.708 385.193C547.782 385.392 547.735 385.624 547.595 385.768C547.28 386.091 546.651 386.642 545.993 386.712C545.818 386.73 545.586 386.739 545.325 386.739C544.237 386.739 542.65 386.611 542.638 386.608L542.636 386.606Z" fill="#2F2E43"/>
<path d="M529.955 383.14L532.385 383.693L533.075 379.775L530.645 379.223L529.955 383.14Z" fill="#FAAFB2"/>
<path d="M531.727 385.876C531.304 385.825 529.192 385.538 529.182 384.974C529.175 384.454 529.406 383.967 529.439 383.901C530.037 381.686 530.115 381.678 530.164 381.673C530.239 381.666 530.426 381.824 530.718 382.146L530.736 382.166V382.195C530.736 382.233 530.738 383.096 531.464 383.129C531.962 383.151 532.14 383.067 532.2 383.018C532.163 382.987 532.118 382.938 532.093 382.868C532.056 382.764 532.068 382.642 532.128 382.507C532.286 382.153 532.654 381.66 532.669 381.638L532.71 381.582L535.099 384.328L536.707 385.27C536.827 385.341 536.913 385.469 536.94 385.622C536.977 385.834 536.894 386.051 536.73 386.162C536.364 386.407 535.654 386.81 534.996 386.73C534.82 386.708 534.593 386.664 534.338 386.606C533.271 386.363 531.737 385.885 531.725 385.881L531.727 385.876Z" fill="#2F2E43"/>
<path d="M546.902 348.126L535.099 346.697L529.667 379.963L533.446 380.498L539.82 358.589L539.504 381.125H543.597L546.902 348.126Z" fill="#2F2E43"/>
<path d="M546.271 328.997L539.82 328.183L533.446 351.612C533.446 351.612 536.672 350.897 538.64 353.222C540.608 355.547 547.383 352.906 547.383 352.906L546.271 328.995V328.997Z" fill="#DFDFE0"/>
<path d="M552.344 353.68C552.519 354.662 552.198 355.561 551.625 355.684C551.053 355.808 550.447 355.114 550.272 354.129C550.196 353.738 550.21 353.331 550.307 352.946L549.612 348.771L551.409 348.448L551.904 352.599C552.128 352.915 552.278 353.286 552.342 353.68H552.344Z" fill="#FAAFB2"/>
<path d="M543.795 328.72L546.271 328.997C547.465 329.285 548.393 330.349 548.639 331.707L552.24 351.61H549.805L543.793 328.718L543.795 328.72Z" fill="#DFDFE0"/>
<path d="M541.7 326.464L542.012 326.302C541.881 325.634 541.763 324.882 542.094 324.312C542.277 323.997 542.588 323.75 542.627 323.376C542.66 323.066 542.487 322.75 542.563 322.449C542.643 322.133 542.954 321.987 543.229 321.88C543.659 321.717 544.097 321.551 544.549 321.537C545.002 321.526 545.481 321.692 545.769 322.088C545.859 322.21 545.927 322.352 545.993 322.489C546.221 322.958 546.614 323.865 546.614 323.865C546.614 323.865 546.599 323.657 546.601 323.243C546.715 322.88 546.879 322.528 546.906 322.146C546.939 321.683 546.77 321.23 546.54 320.847C546.018 319.978 545.14 319.374 544.214 319.327C543.287 319.279 542.438 319.352 541.969 320.261C541.881 320.431 541.809 320.615 541.698 320.768C541.494 321.051 541.184 321.201 540.933 321.429C540.375 321.938 539.981 322.874 540.02 323.688C540.059 324.502 540.322 325.276 540.583 326.035C540.807 326.69 541.268 327.355 541.852 327.586C541.79 327.234 541.73 326.882 541.667 326.53" fill="#2F2E43"/>
<path d="M543.721 329.147L543.684 329.205L542.559 330.953L541.26 332.972L540.968 333.426L539.898 335.091C539.898 335.091 539.555 335.554 538.99 336.133L538.979 336.144C538.776 336.352 538.547 336.574 538.293 336.795C536.863 338.047 534.709 339.27 532.84 337.627C530.467 335.538 535.673 330.884 538.323 328.76C539.193 328.061 540.303 327.873 541.315 328.249L543.721 329.147Z" fill="#DFDFE0"/>
<path d="M543.661 331.603C543.422 331.784 543.151 331.906 542.867 331.966C542.803 331.979 542.738 331.99 542.672 331.997L541.325 333.127L540.969 333.426L539.707 334.485L538.658 332.795L540.595 331.342L541.778 330.453C541.956 330.105 542.203 329.811 542.503 329.601C542.869 329.333 543.266 329.2 543.61 329.2H543.612C543.638 329.2 543.661 329.2 543.684 329.205C544.006 329.22 544.276 329.36 544.426 329.621C544.747 330.174 544.403 331.061 543.661 331.603Z" fill="#FAAFB2"/>
<path d="M541.556 333.693L540.567 331.269L536.185 333.127L538.293 336.795L541.556 333.693Z" fill="#DFDFE0"/>
<path d="M544.052 336.819L543.213 332.503C542.802 330.391 543.855 328.302 545.664 327.65C557.337 323.427 562.327 316.321 564.262 312.461C570.529 299.96 575.086 286.169 575.131 286.032L575.314 286.11C575.269 286.247 570.708 300.055 564.431 312.572C559.89 321.63 550.761 326.039 545.722 327.862C544.011 328.482 543.014 330.457 543.404 332.457L544.243 336.773L544.052 336.819Z" fill="#2F2E43"/>
<path d="M543.66 331.603C543.421 331.784 543.15 331.906 542.866 331.966C542.675 331.671 542.564 331.324 542.559 330.953V330.926C542.559 330.183 542.983 329.537 543.61 329.2H543.612C543.647 329.181 543.575 329.216 543.612 329.2L543.684 329.205C544.005 329.22 544.276 329.36 544.426 329.621C544.747 330.174 544.402 331.061 543.66 331.603Z" fill="#FAAFB2"/>
<path d="M619.18 320.611C619.18 320.611 616.746 319.94 615.273 323.989C614.044 327.362 613.174 329.165 614.171 330.391C614.527 330.829 615.035 331.065 615.561 331.085L621.171 331.293C621.171 331.293 623.231 325.157 621.979 322.938C620.728 320.719 619.182 320.611 619.182 320.611H619.18Z" fill="#2F2E43"/>
<path d="M620.342 330.787L617.644 331.793V327.38H620.091L620.342 330.787Z" fill="#FAAFB2"/>
<path d="M618.271 384.27H615.744L614.278 368.924H618.185L618.271 384.27Z" fill="#FAAFB2"/>
<path d="M613.283 386.737C613.016 386.737 612.781 386.73 612.602 386.71C611.93 386.639 611.29 386.078 610.968 385.748C610.824 385.6 610.777 385.365 610.853 385.162C610.908 385.016 611.015 384.907 611.149 384.863L612.923 384.288L615.794 382.087L615.826 382.153C615.837 382.177 616.12 382.755 616.215 383.144C616.25 383.292 616.242 383.416 616.188 383.511C616.151 383.578 616.098 383.615 616.055 383.638C616.108 383.699 616.269 383.826 616.772 383.916C617.506 384.049 617.658 383.186 617.665 383.149L617.669 383.12L617.691 383.104C618.039 382.85 618.253 382.733 618.327 382.757C618.374 382.773 618.452 382.799 618.658 385.148C618.68 385.221 618.826 385.763 618.726 386.279C618.617 386.841 616.456 386.648 616.024 386.604C616.013 386.604 614.393 386.737 613.283 386.737Z" fill="#2F2E43"/>
<path d="M623.981 384.27H621.454L619.988 368.924H623.895L623.981 384.27Z" fill="#FAAFB2"/>
<path d="M618.993 386.737C618.726 386.737 618.491 386.73 618.312 386.71C617.64 386.639 616.999 386.078 616.678 385.748C616.534 385.6 616.487 385.365 616.563 385.162C616.618 385.016 616.725 384.907 616.859 384.863L618.633 384.288L621.504 382.087L621.536 382.153C621.547 382.177 621.83 382.755 621.925 383.144C621.96 383.292 621.952 383.416 621.898 383.511C621.861 383.578 621.808 383.615 621.765 383.638C621.818 383.699 621.979 383.826 622.482 383.916C623.216 384.049 623.368 383.186 623.375 383.149L623.379 383.12L623.401 383.104C623.749 382.85 623.965 382.733 624.037 382.757C624.084 382.773 624.162 382.799 624.368 385.148C624.39 385.221 624.536 385.763 624.436 386.279C624.329 386.841 622.166 386.648 621.734 386.604C621.722 386.604 620.103 386.737 618.993 386.737Z" fill="#2F2E43"/>
<path d="M624.709 346.579H612.428L616.842 330.07H621.738L624.709 346.579Z" fill="#DFDFE0"/>
<path d="M612.094 355.842C611.948 356.853 611.354 357.578 610.768 357.461C610.182 357.344 609.826 356.43 609.972 355.419C610.024 355.014 610.166 354.632 610.382 354.302L611.052 350.028L612.872 350.462L612.02 354.629C612.133 355.023 612.158 355.439 612.094 355.844V355.842Z" fill="#FAAFB2"/>
<path d="M617.615 330.074C617.615 330.074 614.564 329.984 614.243 330.895C613.922 331.806 610.149 353.514 610.149 353.514H612.637L617.613 330.074H617.615Z" fill="#DFDFE0"/>
<path d="M618.263 328.422C619.748 328.422 620.951 327.054 620.951 325.367C620.951 323.68 619.748 322.312 618.263 322.312C616.778 322.312 615.574 323.68 615.574 325.367C615.574 327.054 616.778 328.422 618.263 328.422Z" fill="#FAAFB2"/>
<path d="M618.685 321.619C618.685 321.619 615.234 327.455 615.814 331.094L613.807 329.665C613.807 329.665 615.22 322.296 617.328 321.723L618.687 321.617L618.685 321.619Z" fill="#2F2E43"/>
<path d="M622.157 346.579H614.097L609.687 367.144C609.605 368.013 610.09 368.823 610.834 369.048C613.254 369.785 619.059 370.827 627.845 367.922C628.69 367.643 629.171 366.628 628.904 365.675L622.157 346.579Z" fill="#2F2E43"/>
<path d="M618.897 330.07L621.405 329.944C622.491 330.037 623.472 330.709 624.055 331.753C625.826 334.934 629.14 341.642 626.181 342.56C622.281 343.77 620.391 337.032 620.391 337.032L618.897 330.068V330.07Z" fill="#DFDFE0"/>
<path d="M618.037 332.07C617.521 331.229 617.504 330.238 617.996 329.857C618.489 329.477 619.304 329.851 619.818 330.694C620.029 331.026 620.163 331.413 620.208 331.82L622.349 335.417L620.778 336.547L618.835 332.882C618.512 332.687 618.24 332.408 618.039 332.07H618.037Z" fill="#FAAFB2"/>
<path d="M619.305 334.979L621.074 333.127L624.573 336.828L621.32 339.354L619.305 334.979Z" fill="#DFDFE0"/>
<path d="M1016.18 58.8759C1016.42 58.6511 1016.59 58.3561 1016.67 58.0307C1016.74 57.7054 1016.71 57.3654 1016.58 57.0568C1016.46 56.7483 1016.24 56.4862 1015.96 56.3059C1015.68 56.1256 1015.35 56.036 1015.02 56.049C1014.87 55.9628 1014.77 55.9008 1014.62 55.8146C1014.61 55.7791 1014.6 55.7436 1014.58 55.7081C1014.26 54.9102 1014.18 54.0347 1014.35 53.1914C1014.52 52.3481 1014.94 51.5747 1015.55 50.9683C1016.16 50.3618 1016.94 49.9495 1017.78 49.7829C1018.63 49.6164 1019.5 49.7032 1020.3 50.0323C1023.47 51.3447 1026.91 52.4063 1029.57 54.487C1030.75 55.4071 1031.76 56.5246 1032.56 57.7896C1029.97 50.8274 1025.92 44.5024 1020.67 39.2436C1019.36 37.9253 1017.97 36.6817 1016.51 35.5186C1015.32 34.5661 1014.08 33.6682 1012.81 32.8248C1005.89 28.2553 997.992 25.3914 989.755 24.4682C987.019 25.2725 984.103 25.2188 981.398 24.3144C980.424 23.9918 979.501 23.5299 978.659 22.9429C978.884 22.7694 979.104 22.5829 979.316 22.3963C979.382 22.3374 979.451 22.2752 979.516 22.2163L979.541 22.1939C979.77 21.9843 979.934 21.7129 980.012 21.4123C980.091 21.1118 980.081 20.7949 979.984 20.4999C979.887 20.2049 979.706 19.9443 979.464 19.7494C979.222 19.5546 978.929 19.4338 978.62 19.4017C978.428 19.3818 978.236 19.362 978.043 19.3424C977.749 19.3096 977.454 19.2834 977.159 19.2507C977.129 19.2503 977.098 19.2481 977.068 19.2441C976.731 19.2081 976.397 19.1754 976.06 19.1394C975.908 18.438 975.92 17.711 976.096 17.0151C976.721 14.6224 979.415 13.1527 981.87 13.4276C984.328 13.6993 986.449 15.408 987.775 17.493C988.852 19.3174 989.612 21.312 990.02 23.3913C990.207 23.4142 990.393 23.4306 990.58 23.4535C993.999 23.8812 997.368 24.6429 1000.64 25.7277C997.933 23.5537 995.783 20.7684 994.364 17.601C993.112 14.5778 992.973 11.1172 992.587 7.80724C992.125 3.83144 996.695 1.19812 999.818 3.70198C999.848 3.72622 999.878 3.75052 999.908 3.77489C999.814 4.11463 999.731 4.45733 999.661 4.80294C999.574 5.23889 999.621 5.69087 999.795 6.09966C999.97 6.50845 1000.26 6.85497 1000.64 7.09385C1001.01 7.33273 1001.45 7.45282 1001.9 7.43836C1002.34 7.42391 1002.77 7.2756 1003.13 7.01286L1003.17 6.98595C1003.87 7.84615 1004.51 8.75873 1005.08 9.71581C1006.64 12.4083 1007.63 15.3946 1007.98 18.4875C1008.34 21.5803 1008.05 24.7129 1007.14 27.689C1007.07 27.8822 1007.01 28.072 1006.95 28.2619C1011.16 30.2757 1015.09 32.8284 1018.64 35.8558C1020.73 37.6481 1022.67 39.6064 1024.44 41.7116L1024.39 41.633C1022.65 39.0575 1021.85 35.9613 1022.13 32.8673C1022.58 28.3021 1025.36 24.0029 1026.41 19.6441C1026.52 19.1723 1026.75 18.7397 1027.09 18.3974C1027.43 18.055 1027.86 17.8173 1028.34 17.7121C1028.81 17.607 1029.3 17.6388 1029.75 17.8038C1030.21 17.9689 1030.6 18.2603 1030.9 18.6437C1030.92 18.6714 1030.94 18.6992 1030.96 18.727C1030.72 19.2942 1030.52 19.8758 1030.35 20.4683C1030.25 20.8081 1030.17 21.1507 1030.1 21.4963C1030.01 21.9323 1030.06 22.3843 1030.24 22.7931C1030.41 23.2018 1030.7 23.5484 1031.08 23.7873C1031.45 24.0262 1031.89 24.1462 1032.34 24.1318C1032.78 24.1173 1033.21 23.969 1033.57 23.7063L1033.61 23.6793C1033.63 23.6597 1033.66 23.6433 1033.68 23.6238C1034.64 25.9569 1035.18 28.4371 1035.3 30.9557C1035.41 34.0344 1034.89 37.1028 1033.77 39.9728C1032.65 42.8427 1030.95 45.4538 1028.79 47.6459L1028.78 47.6492C1030.76 50.8099 1032.41 54.1677 1033.69 57.6685L1024.56 66.8007C1024.42 66.732 1024.29 66.6567 1024.16 66.5847C1025.06 65.7926 1025.86 64.8934 1026.54 63.9072C1025.03 63.7534 1023.51 63.5929 1022 63.4391C1021.97 63.4387 1021.94 63.4365 1021.91 63.4326C1021.14 63.3508 1020.37 63.2755 1019.6 63.1936L1019.6 63.1933C1018.28 61.9073 1017.13 60.456 1016.18 58.8759Z" fill="#243F2A"/>
<path d="M988.526 39.8794C988.541 39.5463 988.454 39.2165 988.275 38.9347C988.097 38.653 987.836 38.4328 987.528 38.3042C987.221 38.1755 986.881 38.1446 986.555 38.2155C986.229 38.2864 985.933 38.4558 985.707 38.7007C985.544 38.7417 985.427 38.7711 985.264 38.8121C985.228 38.7975 985.193 38.7827 985.157 38.7678C984.365 38.4322 983.689 37.8699 983.215 37.1514C982.741 36.4329 982.489 35.5904 982.493 34.7296C982.496 33.8688 982.753 33.0281 983.233 32.3132C983.712 31.5982 984.392 31.0409 985.187 30.7112C988.361 29.3935 991.54 27.7158 994.896 27.3027C996.379 27.1208 997.882 27.1975 999.339 27.5296C992.588 24.4346 985.25 22.8276 977.824 22.8172C975.96 22.8166 974.098 22.9201 972.246 23.1273C970.727 23.2986 969.22 23.5362 967.723 23.8402C959.602 25.499 951.99 29.0606 945.513 34.2324C944.147 36.7355 942.047 38.7598 939.495 40.0325C938.578 40.4936 937.599 40.8195 936.588 41C936.625 40.7176 936.648 40.4306 936.667 40.1483C936.672 40.0603 936.676 39.9678 936.681 39.8798L936.682 39.8466C936.696 39.5363 936.62 39.2285 936.463 38.9604C936.306 38.6923 936.075 38.4753 935.798 38.3355C935.521 38.1956 935.209 38.1389 934.9 38.1722C934.591 38.2055 934.298 38.3274 934.057 38.5232C933.907 38.6451 933.757 38.7671 933.607 38.8891C933.376 39.0743 933.149 39.2641 932.917 39.4492C932.895 39.4706 932.872 39.4907 932.848 39.5094C932.584 39.7224 932.325 39.9353 932.061 40.1483C931.458 39.7596 930.952 39.2368 930.584 38.6207C929.335 36.4867 930.2 33.5426 932.131 32.0011C934.061 30.455 936.769 30.1634 939.181 30.7004C941.233 31.2284 943.18 32.1019 944.939 33.2834C945.087 33.1677 945.231 33.0473 945.379 32.9316C948.099 30.8161 951.02 28.9723 954.1 27.4266C950.65 27.8025 947.159 27.3539 943.916 26.1176C940.894 24.8647 938.348 22.5163 935.735 20.4483C932.596 17.9642 933.966 12.8704 937.945 12.4328C937.983 12.4285 938.022 12.4244 938.06 12.4203C938.234 12.7275 938.417 13.0282 938.612 13.3224C938.859 13.692 939.212 13.9784 939.624 14.144C940.037 14.3097 940.49 14.3468 940.924 14.2507C941.358 14.1545 941.752 13.9296 942.056 13.6052C942.36 13.2809 942.559 12.8723 942.627 12.433L942.634 12.388C943.741 12.4974 944.838 12.6908 945.916 12.9666C948.925 13.7656 951.736 15.1777 954.173 17.1141C956.611 19.0505 958.622 21.4696 960.081 24.2197C960.173 24.4003 960.266 24.5762 960.354 24.7567C964.755 23.2038 969.339 22.2297 973.991 21.859C976.735 21.6491 979.493 21.6615 982.235 21.896L982.138 21.8821C979.088 21.2896 976.336 19.6627 974.347 17.2762C971.436 13.7317 970.363 8.72399 968.023 4.90012C967.762 4.49374 967.623 4.02124 967.622 3.53831C967.62 3.05537 967.757 2.58217 968.016 2.17451C968.275 1.76686 968.645 1.44176 969.083 1.23755C969.521 1.03334 970.008 0.958502 970.486 1.02194C970.52 1.02706 970.554 1.0323 970.588 1.0376C970.821 1.60762 971.088 2.16266 971.389 2.69942C971.563 3.0066 971.746 3.30725 971.941 3.60144C972.188 3.97103 972.541 4.25742 972.953 4.42307C973.366 4.58872 973.819 4.62592 974.253 4.52978C974.687 4.43363 975.081 4.20862 975.385 3.88426C975.689 3.5599 975.888 3.15131 975.956 2.71201L975.963 2.66701C975.967 2.6346 975.972 2.60683 975.977 2.57447C978.302 3.54844 980.443 4.91543 982.305 6.61558C984.558 8.71584 986.359 11.2543 987.597 14.0752C988.835 16.8962 989.483 19.9403 989.503 23.0208V23.0255C993.136 23.8617 996.674 25.0733 1000.06 26.6408V39.5558C999.913 39.6021 999.765 39.6437 999.622 39.6854C999.697 38.4899 999.625 37.2898 999.409 36.1117C998.233 37.07 997.048 38.0281 995.872 38.9864C995.85 39.0077 995.827 39.0278 995.803 39.0466C995.201 39.5326 994.604 40.0233 994.002 40.5093L994.001 40.5096C992.157 40.5355 990.316 40.3235 988.526 39.8794Z" fill="#243F2A"/>
<path d="M930.526 39.8794C930.541 39.5463 930.454 39.2165 930.275 38.9347C930.097 38.653 929.836 38.4328 929.528 38.3042C929.221 38.1755 928.881 38.1446 928.555 38.2155C928.229 38.2864 927.933 38.4558 927.707 38.7007C927.544 38.7417 927.427 38.7711 927.264 38.8121C927.228 38.7975 927.193 38.7827 927.157 38.7678C926.365 38.4322 925.689 37.8699 925.215 37.1514C924.741 36.4329 924.489 35.5904 924.493 34.7296C924.496 33.8688 924.753 33.0281 925.233 32.3132C925.712 31.5982 926.392 31.0409 927.187 30.7112C930.361 29.3935 933.54 27.7158 936.896 27.3027C938.379 27.1208 939.882 27.1975 941.339 27.5296C934.588 24.4346 927.25 22.8276 919.824 22.8172C917.96 22.8166 916.098 22.9201 914.246 23.1273C912.727 23.2986 911.22 23.5362 909.723 23.8402C901.602 25.499 893.99 29.0606 887.513 34.2324C886.147 36.7355 884.047 38.7598 881.495 40.0325C880.578 40.4936 879.599 40.8195 878.588 41C878.625 40.7176 878.648 40.4306 878.667 40.1483C878.672 40.0603 878.676 39.9678 878.681 39.8798L878.682 39.8466C878.696 39.5363 878.62 39.2285 878.463 38.9604C878.306 38.6923 878.075 38.4753 877.798 38.3355C877.521 38.1956 877.209 38.1389 876.9 38.1722C876.591 38.2055 876.298 38.3274 876.057 38.5232C875.907 38.6451 875.757 38.7671 875.607 38.8891C875.376 39.0743 875.149 39.2641 874.917 39.4492C874.895 39.4706 874.872 39.4907 874.848 39.5094C874.584 39.7224 874.325 39.9353 874.061 40.1483C873.458 39.7596 872.952 39.2368 872.584 38.6207C871.335 36.4867 872.2 33.5426 874.131 32.0011C876.061 30.455 878.769 30.1634 881.181 30.7004C883.233 31.2284 885.18 32.1019 886.939 33.2834C887.087 33.1677 887.231 33.0473 887.379 32.9316C890.099 30.8161 893.02 28.9723 896.1 27.4266C892.65 27.8025 889.159 27.3539 885.916 26.1176C882.894 24.8647 880.348 22.5163 877.735 20.4483C874.596 17.9642 875.966 12.8704 879.945 12.4328C879.983 12.4285 880.022 12.4244 880.06 12.4203C880.234 12.7275 880.417 13.0282 880.612 13.3224C880.859 13.692 881.212 13.9784 881.624 14.144C882.037 14.3097 882.49 14.3468 882.924 14.2507C883.358 14.1545 883.752 13.9296 884.056 13.6052C884.36 13.2809 884.559 12.8723 884.627 12.433L884.634 12.388C885.741 12.4974 886.838 12.6908 887.916 12.9666C890.925 13.7656 893.736 15.1777 896.173 17.1141C898.611 19.0505 900.622 21.4696 902.081 24.2197C902.173 24.4003 902.266 24.5762 902.354 24.7567C906.755 23.2038 911.339 22.2297 915.991 21.859C918.735 21.6491 921.493 21.6615 924.235 21.896L924.138 21.8821C921.088 21.2896 918.336 19.6627 916.347 17.2762C913.436 13.7317 912.363 8.72399 910.023 4.90012C909.762 4.49374 909.623 4.02124 909.622 3.53831C909.62 3.05537 909.757 2.58217 910.016 2.17451C910.275 1.76686 910.645 1.44176 911.083 1.23755C911.521 1.03334 912.008 0.958502 912.486 1.02194C912.52 1.02706 912.554 1.0323 912.588 1.0376C912.821 1.60762 913.088 2.16266 913.389 2.69942C913.563 3.0066 913.746 3.30725 913.941 3.60144C914.188 3.97103 914.541 4.25742 914.953 4.42307C915.366 4.58872 915.819 4.62592 916.253 4.52978C916.687 4.43363 917.081 4.20862 917.385 3.88426C917.689 3.5599 917.888 3.15131 917.956 2.71201L917.963 2.66701C917.967 2.6346 917.972 2.60683 917.977 2.57447C920.302 3.54844 922.443 4.91543 924.305 6.61558C926.558 8.71584 928.359 11.2543 929.597 14.0752C930.835 16.8962 931.483 19.9403 931.503 23.0208V23.0255C935.136 23.8617 938.674 25.0733 942.057 26.6408V39.5558C941.913 39.6021 941.765 39.6437 941.622 39.6854C941.697 38.4899 941.625 37.2898 941.409 36.1117C940.233 37.07 939.048 38.0281 937.872 38.9864C937.85 39.0077 937.827 39.0278 937.803 39.0466C937.201 39.5326 936.604 40.0233 936.002 40.5093L936.001 40.5096C934.157 40.5355 932.316 40.3235 930.526 39.8794Z" fill="#243F2A"/>
<path d="M879.526 38.8794C879.541 38.5463 879.454 38.2165 879.275 37.9347C879.097 37.653 878.836 37.4328 878.528 37.3042C878.221 37.1755 877.881 37.1446 877.555 37.2155C877.229 37.2864 876.933 37.4558 876.707 37.7007C876.544 37.7417 876.427 37.7711 876.264 37.8121C876.228 37.7975 876.193 37.7827 876.157 37.7678C875.365 37.4322 874.689 36.8699 874.215 36.1514C873.741 35.4329 873.489 34.5904 873.493 33.7296C873.496 32.8688 873.753 32.0281 874.233 31.3132C874.712 30.5982 875.392 30.0409 876.187 29.7112C879.361 28.3935 882.54 26.7158 885.896 26.3027C887.379 26.1208 888.882 26.1975 890.339 26.5296C883.588 23.4346 876.25 21.8276 868.824 21.8172C866.96 21.8166 865.098 21.9201 863.246 22.1273C861.727 22.2986 860.22 22.5362 858.723 22.8402C850.602 24.499 842.99 28.0606 836.513 33.2324C835.147 35.7355 833.047 37.7598 830.495 39.0325C829.578 39.4936 828.599 39.8195 827.588 40C827.625 39.7176 827.648 39.4306 827.667 39.1483C827.672 39.0603 827.676 38.9678 827.681 38.8798L827.682 38.8466C827.696 38.5363 827.62 38.2285 827.463 37.9604C827.306 37.6923 827.075 37.4753 826.798 37.3355C826.521 37.1956 826.209 37.1389 825.9 37.1722C825.591 37.2055 825.298 37.3274 825.057 37.5232C824.907 37.6451 824.757 37.7671 824.607 37.8891C824.376 38.0743 824.149 38.2641 823.917 38.4492C823.895 38.4706 823.872 38.4907 823.848 38.5094C823.584 38.7224 823.325 38.9353 823.061 39.1483C822.458 38.7596 821.952 38.2368 821.584 37.6207C820.335 35.4867 821.2 32.5426 823.131 31.0011C825.061 29.455 827.769 29.1634 830.181 29.7004C832.233 30.2284 834.18 31.1019 835.939 32.2834C836.087 32.1677 836.231 32.0473 836.379 31.9316C839.099 29.8161 842.02 27.9723 845.1 26.4266C841.65 26.8025 838.159 26.3539 834.916 25.1176C831.894 23.8647 829.348 21.5163 826.735 19.4483C823.596 16.9642 824.966 11.8704 828.945 11.4328C828.983 11.4285 829.022 11.4244 829.06 11.4203C829.234 11.7275 829.417 12.0282 829.612 12.3224C829.859 12.692 830.212 12.9784 830.624 13.144C831.037 13.3097 831.49 13.3468 831.924 13.2507C832.358 13.1545 832.752 12.9296 833.056 12.6052C833.36 12.2809 833.559 11.8723 833.627 11.433L833.634 11.388C834.741 11.4974 835.838 11.6908 836.916 11.9666C839.925 12.7656 842.736 14.1777 845.173 16.1141C847.611 18.0505 849.622 20.4696 851.081 23.2197C851.173 23.4003 851.266 23.5762 851.354 23.7567C855.755 22.2038 860.339 21.2297 864.991 20.859C867.735 20.6491 870.493 20.6615 873.235 20.896L873.138 20.8821C870.088 20.2896 867.336 18.6627 865.347 16.2762C862.436 12.7317 861.363 7.72399 859.023 3.90012C858.762 3.49374 858.623 3.02124 858.622 2.53831C858.62 2.05537 858.757 1.58217 859.016 1.17451C859.275 0.766858 859.645 0.44176 860.083 0.237549C860.521 0.0333379 861.008 -0.0414984 861.486 0.0219352C861.52 0.0270637 861.554 0.0322957 861.588 0.0375952C861.821 0.60762 862.088 1.16266 862.389 1.69942C862.563 2.0066 862.746 2.30725 862.941 2.60144C863.188 2.97103 863.541 3.25742 863.953 3.42307C864.366 3.58872 864.819 3.62592 865.253 3.52978C865.687 3.43363 866.081 3.20862 866.385 2.88426C866.689 2.5599 866.888 2.15131 866.956 1.71201L866.963 1.66701C866.967 1.6346 866.972 1.60683 866.977 1.57447C869.302 2.54844 871.443 3.91543 873.305 5.61558C875.558 7.71584 877.359 10.2543 878.597 13.0752C879.835 15.8962 880.483 18.9403 880.503 22.0208V22.0255C884.136 22.8617 887.674 24.0733 891.057 25.6408V38.5558C890.913 38.6021 890.765 38.6437 890.622 38.6854C890.697 37.4899 890.625 36.2898 890.409 35.1117C889.233 36.07 888.048 37.0281 886.872 37.9864C886.85 38.0077 886.827 38.0278 886.803 38.0466C886.201 38.5326 885.604 39.0233 885.002 39.5093L885.001 39.5096C883.157 39.5355 881.316 39.3235 879.526 38.8794Z" fill="#243F2A"/>
<path d="M825.526 39.8794C825.541 39.5463 825.454 39.2165 825.275 38.9347C825.097 38.653 824.836 38.4328 824.528 38.3042C824.221 38.1755 823.881 38.1446 823.555 38.2155C823.229 38.2864 822.933 38.4558 822.707 38.7007C822.544 38.7417 822.427 38.7711 822.264 38.8121C822.228 38.7975 822.193 38.7827 822.157 38.7678C821.365 38.4322 820.689 37.8699 820.215 37.1514C819.741 36.4329 819.489 35.5904 819.493 34.7296C819.496 33.8688 819.753 33.0281 820.233 32.3132C820.712 31.5982 821.392 31.0409 822.187 30.7112C825.361 29.3935 828.54 27.7158 831.896 27.3027C833.379 27.1208 834.882 27.1975 836.339 27.5296C829.588 24.4346 822.25 22.8276 814.824 22.8172C812.96 22.8166 811.098 22.9201 809.246 23.1273C807.727 23.2986 806.22 23.5362 804.723 23.8402C796.602 25.499 788.99 29.0606 782.513 34.2324C781.147 36.7355 779.047 38.7598 776.495 40.0325C775.578 40.4936 774.599 40.8195 773.588 41C773.625 40.7176 773.648 40.4306 773.667 40.1483C773.672 40.0603 773.676 39.9678 773.681 39.8798L773.682 39.8466C773.696 39.5363 773.62 39.2285 773.463 38.9604C773.306 38.6923 773.075 38.4753 772.798 38.3355C772.521 38.1956 772.209 38.1389 771.9 38.1722C771.591 38.2055 771.298 38.3274 771.057 38.5232C770.907 38.6451 770.757 38.7671 770.607 38.8891C770.376 39.0743 770.149 39.2641 769.917 39.4492C769.895 39.4706 769.872 39.4907 769.848 39.5094C769.584 39.7224 769.325 39.9353 769.061 40.1483C768.458 39.7596 767.952 39.2368 767.584 38.6207C766.335 36.4867 767.2 33.5426 769.131 32.0011C771.061 30.455 773.769 30.1634 776.181 30.7004C778.233 31.2284 780.18 32.1019 781.939 33.2834C782.087 33.1677 782.231 33.0473 782.379 32.9316C785.099 30.8161 788.02 28.9723 791.1 27.4266C787.65 27.8025 784.159 27.3539 780.916 26.1176C777.894 24.8647 775.348 22.5163 772.735 20.4483C769.596 17.9642 770.966 12.8704 774.945 12.4328C774.983 12.4285 775.022 12.4244 775.06 12.4203C775.234 12.7275 775.417 13.0282 775.612 13.3224C775.859 13.692 776.212 13.9784 776.624 14.144C777.037 14.3097 777.49 14.3468 777.924 14.2507C778.358 14.1545 778.752 13.9296 779.056 13.6052C779.36 13.2809 779.559 12.8723 779.627 12.433L779.634 12.388C780.741 12.4974 781.838 12.6908 782.916 12.9666C785.925 13.7656 788.736 15.1777 791.173 17.1141C793.611 19.0505 795.622 21.4696 797.081 24.2197C797.173 24.4003 797.266 24.5762 797.354 24.7567C801.755 23.2038 806.339 22.2297 810.991 21.859C813.735 21.6491 816.493 21.6615 819.235 21.896L819.138 21.8821C816.088 21.2896 813.336 19.6627 811.347 17.2762C808.436 13.7317 807.363 8.72399 805.023 4.90012C804.762 4.49374 804.623 4.02124 804.622 3.53831C804.62 3.05537 804.757 2.58217 805.016 2.17451C805.275 1.76686 805.645 1.44176 806.083 1.23755C806.521 1.03334 807.008 0.958502 807.486 1.02194C807.52 1.02706 807.554 1.0323 807.588 1.0376C807.821 1.60762 808.088 2.16266 808.389 2.69942C808.563 3.0066 808.746 3.30725 808.941 3.60144C809.188 3.97103 809.541 4.25742 809.953 4.42307C810.366 4.58872 810.819 4.62592 811.253 4.52978C811.687 4.43363 812.081 4.20862 812.385 3.88426C812.689 3.5599 812.888 3.15131 812.956 2.71201L812.963 2.66701C812.967 2.6346 812.972 2.60683 812.977 2.57447C815.302 3.54844 817.443 4.91543 819.305 6.61558C821.558 8.71584 823.359 11.2543 824.597 14.0752C825.835 16.8962 826.483 19.9403 826.503 23.0208V23.0255C830.136 23.8617 833.674 25.0733 837.057 26.6408V39.5558C836.913 39.6021 836.765 39.6437 836.622 39.6854C836.697 38.4899 836.625 37.2898 836.409 36.1117C835.233 37.07 834.048 38.0281 832.872 38.9864C832.85 39.0077 832.827 39.0278 832.803 39.0466C832.201 39.5326 831.604 40.0233 831.002 40.5093L831.001 40.5096C829.157 40.5355 827.316 40.3235 825.526 39.8794Z" fill="#243F2A"/>
<path d="M768.526 45.8794C768.541 45.5463 768.454 45.2165 768.275 44.9347C768.097 44.653 767.836 44.4328 767.528 44.3042C767.221 44.1755 766.881 44.1446 766.555 44.2155C766.229 44.2864 765.933 44.4558 765.707 44.7007C765.544 44.7417 765.427 44.7711 765.264 44.8121C765.228 44.7975 765.193 44.7827 765.157 44.7678C764.365 44.4322 763.689 43.8699 763.215 43.1514C762.741 42.4329 762.489 41.5904 762.493 40.7296C762.496 39.8688 762.753 39.0281 763.233 38.3132C763.712 37.5982 764.392 37.0409 765.187 36.7112C768.361 35.3935 771.54 33.7158 774.896 33.3027C776.379 33.1208 777.882 33.1975 779.339 33.5296C772.588 30.4346 765.25 28.8276 757.824 28.8172C755.96 28.8166 754.098 28.9201 752.246 29.1273C750.727 29.2986 749.22 29.5362 747.723 29.8402C739.602 31.499 731.99 35.0606 725.513 40.2324C724.147 42.7355 722.047 44.7598 719.495 46.0325C718.578 46.4936 717.599 46.8195 716.588 47C716.625 46.7176 716.648 46.4306 716.667 46.1483C716.672 46.0603 716.676 45.9678 716.681 45.8798L716.682 45.8466C716.696 45.5363 716.62 45.2285 716.463 44.9604C716.306 44.6923 716.075 44.4753 715.798 44.3355C715.521 44.1956 715.209 44.1389 714.9 44.1722C714.591 44.2055 714.298 44.3274 714.057 44.5232C713.907 44.6451 713.757 44.7671 713.607 44.8891C713.376 45.0743 713.149 45.2641 712.917 45.4492C712.895 45.4706 712.872 45.4907 712.848 45.5094C712.584 45.7224 712.325 45.9353 712.061 46.1483C711.458 45.7596 710.952 45.2368 710.584 44.6207C709.335 42.4867 710.2 39.5426 712.131 38.0011C714.061 36.455 716.769 36.1634 719.181 36.7004C721.233 37.2284 723.18 38.1019 724.939 39.2834C725.087 39.1677 725.231 39.0473 725.379 38.9316C728.099 36.8161 731.02 34.9723 734.1 33.4266C730.65 33.8025 727.159 33.3539 723.916 32.1176C720.894 30.8647 718.348 28.5163 715.735 26.4483C712.596 23.9642 713.966 18.8704 717.945 18.4328C717.983 18.4285 718.022 18.4244 718.06 18.4203C718.234 18.7275 718.417 19.0282 718.612 19.3224C718.859 19.692 719.212 19.9784 719.624 20.144C720.037 20.3097 720.49 20.3468 720.924 20.2507C721.358 20.1545 721.752 19.9296 722.056 19.6052C722.36 19.2809 722.559 18.8723 722.627 18.433L722.634 18.388C723.741 18.4974 724.838 18.6908 725.916 18.9666C728.925 19.7656 731.736 21.1777 734.173 23.1141C736.611 25.0505 738.622 27.4696 740.081 30.2197C740.173 30.4003 740.266 30.5762 740.354 30.7567C744.755 29.2038 749.339 28.2297 753.991 27.859C756.735 27.6491 759.493 27.6615 762.235 27.896L762.138 27.8821C759.088 27.2896 756.336 25.6627 754.347 23.2762C751.436 19.7317 750.363 14.724 748.023 10.9001C747.762 10.4937 747.623 10.0212 747.622 9.53831C747.62 9.05537 747.757 8.58217 748.016 8.17451C748.275 7.76686 748.645 7.44176 749.083 7.23755C749.521 7.03334 750.008 6.9585 750.486 7.02194C750.52 7.02706 750.554 7.0323 750.588 7.0376C750.821 7.60762 751.088 8.16266 751.389 8.69942C751.563 9.0066 751.746 9.30725 751.941 9.60144C752.188 9.97103 752.541 10.2574 752.953 10.4231C753.366 10.5887 753.819 10.6259 754.253 10.5298C754.687 10.4336 755.081 10.2086 755.385 9.88426C755.689 9.5599 755.888 9.15131 755.956 8.71201L755.963 8.66701C755.967 8.6346 755.972 8.60683 755.977 8.57447C758.302 9.54844 760.443 10.9154 762.305 12.6156C764.558 14.7158 766.359 17.2543 767.597 20.0752C768.835 22.8962 769.483 25.9403 769.503 29.0208V29.0255C773.136 29.8617 776.674 31.0733 780.057 32.6408V45.5558C779.913 45.6021 779.765 45.6437 779.622 45.6854C779.697 44.4899 779.625 43.2898 779.409 42.1117C778.233 43.07 777.048 44.0281 775.872 44.9864C775.85 45.0077 775.827 45.0278 775.803 45.0466C775.201 45.5326 774.604 46.0233 774.002 46.5093L774.001 46.5096C772.157 46.5355 770.316 46.3235 768.526 45.8794Z" fill="#243F2A"/>
<path d="M17.6455 50.8759C17.3991 50.6511 17.2277 50.3561 17.1546 50.0307C17.0815 49.7054 17.1102 49.3654 17.2368 49.0568C17.3634 48.7483 17.5818 48.4862 17.8623 48.3059C18.1429 48.1256 18.4721 48.036 18.8053 48.049C18.9496 47.9628 19.0531 47.9008 19.1974 47.8146C19.2121 47.7791 19.2267 47.7436 19.2413 47.7081C19.5645 46.9102 19.6447 46.0347 19.472 45.1914C19.2992 44.3481 18.881 43.5747 18.2701 42.9683C17.6592 42.3618 16.8827 41.9495 16.0381 41.7829C15.1936 41.6164 14.3186 41.7032 13.5232 42.0323C10.3474 43.3447 6.91312 44.4063 4.24826 46.487C3.0708 47.4071 2.06188 48.5246 1.26638 49.7896C3.85174 42.8274 7.90394 36.5024 13.1481 31.2436C14.4655 29.9253 15.8555 28.6817 17.3117 27.5186C18.5064 26.5661 19.7404 25.6682 21.0137 24.8248C27.9291 20.2553 35.8298 17.3914 44.067 16.4682C46.8027 17.2725 49.7192 17.2188 52.4235 16.3144C53.3981 15.9918 54.3209 15.5299 55.1632 14.9429C54.9373 14.7694 54.718 14.5829 54.5053 14.3963C54.4398 14.3374 54.3711 14.2752 54.3056 14.2163L54.2811 14.1939C54.0518 13.9843 53.888 13.7129 53.8094 13.4123C53.7307 13.1118 53.7407 12.7949 53.8379 12.4999C53.9352 12.2049 54.1157 11.9443 54.3576 11.7494C54.5995 11.5546 54.8927 11.4338 55.2016 11.4017C55.3939 11.3818 55.5862 11.362 55.7785 11.3424C56.0731 11.3096 56.3677 11.2834 56.6623 11.2507C56.6929 11.2503 56.7236 11.2481 56.754 11.2441C57.0911 11.2081 57.425 11.1754 57.7621 11.1394C57.9139 10.438 57.9015 9.71097 57.7261 9.0151C57.1009 6.62237 54.407 5.1527 51.9521 5.42764C49.4939 5.6993 47.3729 7.40796 46.0472 9.49296C44.9695 11.3174 44.2102 13.312 43.8018 15.3913C43.6152 15.4142 43.4287 15.4306 43.2421 15.4535C39.8227 15.8812 36.4535 16.6429 33.1827 17.7277C35.8883 15.5537 38.0391 12.7684 39.4582 9.60099C40.7095 6.5778 40.849 3.11725 41.2343 -0.19276C41.6971 -4.16856 37.1267 -6.80188 34.0039 -4.29802C33.9737 -4.27378 33.9435 -4.24948 33.9134 -4.22511C34.0081 -3.88537 34.0907 -3.54267 34.1611 -3.19706C34.2478 -2.76111 34.2009 -2.30913 34.0264 -1.90034C33.8518 -1.49155 33.5578 -1.14503 33.183 -0.906153C32.8081 -0.667274 32.3699 -0.54718 31.9257 -0.561637C31.4814 -0.576093 31.0519 -0.7244 30.6933 -0.987143L30.6566 -1.01405C29.9512 -0.153849 29.3121 0.758731 28.745 1.71581C27.1825 4.40834 26.1932 7.39464 25.8389 10.4875C25.4846 13.5803 25.773 16.7129 26.6862 19.689C26.7484 19.8822 26.8073 20.072 26.8728 20.2619C22.6628 22.2757 18.7325 24.8284 15.1808 27.8558C13.0917 29.6481 11.1509 31.6064 9.37742 33.7116L9.43634 33.633C11.1738 31.0575 11.9692 27.9613 11.6883 24.8673C11.2408 20.3021 8.45799 16.0029 7.40903 11.6441C7.30617 11.1723 7.07054 10.7397 6.72989 10.3974C6.38923 10.055 5.95778 9.81728 5.48643 9.71211C5.01509 9.60695 4.52349 9.63879 4.06963 9.80385C3.61578 9.96891 3.21856 10.2603 2.92489 10.6437C2.90443 10.6714 2.88405 10.6992 2.86371 10.727C3.10262 11.2942 3.30598 11.8758 3.47257 12.4683C3.56721 12.8081 3.64975 13.1507 3.72022 13.4963C3.80695 13.9323 3.75997 14.3843 3.58544 14.7931C3.4109 15.2018 3.11697 15.5484 2.74212 15.7873C2.36727 16.0262 1.92898 16.1462 1.48472 16.1318C1.04046 16.1173 0.610941 15.969 0.252414 15.7063L0.215717 15.6793C0.189515 15.6597 0.166597 15.6433 0.140418 15.6238C-0.815285 17.9569 -1.36227 20.4371 -1.47656 22.9557C-1.58502 26.0344 -1.06354 29.1028 0.0559691 31.9728C1.17548 34.8427 2.86941 37.4538 5.03386 39.6459L5.03717 39.6492C3.05898 42.8099 1.41461 46.1677 0.130606 49.6685L9.26287 58.8007C9.3971 58.732 9.53128 58.6567 9.66221 58.5847C8.76377 57.7926 7.96571 56.8934 7.28582 55.9072C8.79481 55.7534 10.3103 55.5929 11.8193 55.4391C11.8499 55.4387 11.8805 55.4365 11.9109 55.4326C12.6801 55.3508 13.4493 55.2755 14.2185 55.1936L14.2192 55.1933C15.5419 53.9073 16.6934 52.456 17.6455 50.8759Z" fill="#243F2A"/>
<path d="M44.5309 31.8794C44.5156 31.5463 44.6031 31.2165 44.7815 30.9347C44.9598 30.653 45.2205 30.4328 45.5282 30.3042C45.8359 30.1755 46.1756 30.1446 46.5015 30.2155C46.8274 30.2864 47.1235 30.4558 47.3499 30.7007C47.5129 30.7417 47.63 30.7711 47.793 30.8121C47.8284 30.7975 47.8639 30.7827 47.8993 30.7678C48.692 30.4322 49.3679 29.8699 49.842 29.1514C50.3161 28.4329 50.5673 27.5904 50.5641 26.7296C50.5609 25.8688 50.3034 25.0281 49.824 24.3132C49.3446 23.5982 48.6646 23.0409 47.8694 22.7112C44.6957 21.3935 41.5167 19.7158 38.1611 19.3027C36.6778 19.1208 35.1743 19.1975 33.7172 19.5296C40.4684 16.4346 47.8062 14.8276 55.2329 14.8172C57.0966 14.8166 58.9589 14.9201 60.811 15.1273C62.3293 15.2986 63.8368 15.5362 65.3335 15.8402C73.4546 17.499 81.0663 21.0606 87.5436 26.2324C88.9094 28.7355 91.0096 30.7598 93.5613 32.0325C94.4786 32.4936 95.4578 32.8195 96.4684 33C96.4313 32.7176 96.4082 32.4306 96.3897 32.1483C96.3851 32.0603 96.3804 31.9678 96.3758 31.8798L96.3743 31.8466C96.3604 31.5363 96.4365 31.2285 96.5934 30.9604C96.7503 30.6923 96.9813 30.4753 97.2587 30.3355C97.5361 30.1956 97.848 30.1389 98.1569 30.1722C98.4657 30.2055 98.7584 30.3274 98.9996 30.5232C99.1496 30.6451 99.2996 30.7671 99.4495 30.8891C99.6809 31.0743 99.9078 31.2641 100.139 31.4492C100.161 31.4706 100.184 31.4907 100.209 31.5094C100.473 31.7224 100.732 31.9353 100.996 32.1483C101.599 31.7596 102.104 31.2368 102.472 30.6207C103.722 28.4867 102.856 25.5426 100.926 24.0011C98.9959 22.455 96.2878 22.1634 93.8761 22.7004C91.824 23.2284 89.8767 24.1019 88.1176 25.2834C87.9695 25.1677 87.826 25.0473 87.6779 24.9316C84.9576 22.8161 82.0366 20.9723 78.9567 19.4266C82.4071 19.8025 85.8974 19.3539 89.1406 18.1176C92.1631 16.8647 94.7087 14.5163 97.3217 12.4483C100.46 9.9642 99.0905 4.87039 95.1119 4.43276C95.0734 4.42852 95.0349 4.42437 94.9964 4.42034C94.8231 4.72751 94.6391 5.02821 94.4446 5.32241C94.1976 5.692 93.8448 5.97839 93.4324 6.14404C93.0199 6.30968 92.567 6.34684 92.133 6.25069C91.6991 6.15455 91.3043 5.92958 91.0003 5.60522C90.6964 5.28086 90.4976 4.87228 90.4298 4.43298L90.4229 4.38797C89.3158 4.4974 88.2186 4.69081 87.1409 4.96657C84.1321 5.76562 81.3209 7.17767 78.8834 9.11411C76.446 11.0505 74.4348 13.4696 72.9761 16.2197C72.8835 16.4003 72.7909 16.5762 72.703 16.7567C68.3021 15.2038 63.7179 14.2297 59.0658 13.859C56.3212 13.6491 53.5641 13.6615 50.8215 13.896L50.9188 13.8821C53.9685 13.2896 56.7203 11.6627 58.7094 9.27621C61.6211 5.73172 62.6933 0.723995 65.0337 -3.09988C65.2946 -3.50626 65.4339 -3.97876 65.4351 -4.46169C65.4362 -4.94463 65.2993 -5.41783 65.0403 -5.82549C64.7814 -6.23314 64.4113 -6.55824 63.9737 -6.76245C63.536 -6.96666 63.0491 -7.0415 62.5704 -6.97806C62.5363 -6.97294 62.5022 -6.9677 62.4682 -6.9624C62.236 -6.39238 61.9686 -5.83734 61.6674 -5.30058C61.4941 -4.9934 61.3101 -4.69275 61.1156 -4.39856C60.8687 -4.02897 60.5159 -3.74258 60.1034 -3.57693C59.6909 -3.41128 59.238 -3.37408 58.804 -3.47022C58.3701 -3.56637 57.9752 -3.79138 57.6713 -4.11574C57.3674 -4.4401 57.1686 -4.84869 57.1008 -5.28799L57.0939 -5.33299C57.0893 -5.3654 57.0846 -5.39317 57.08 -5.42553C54.7544 -4.45156 52.6139 -3.08457 50.7521 -1.38442C48.4985 0.715845 46.6975 3.25426 45.4598 6.07524C44.222 8.89623 43.5735 11.9403 43.554 15.0208V15.0255C39.9202 15.8617 36.3831 17.0733 32.9998 18.6408V31.5558C33.1433 31.6021 33.2914 31.6437 33.4349 31.6854C33.3598 30.4899 33.4313 29.2898 33.6478 28.1117C34.8236 29.07 36.0087 30.0281 37.1845 30.9864C37.2064 31.0077 37.2296 31.0278 37.2539 31.0466C37.8556 31.5326 38.4528 32.0233 39.0546 32.5093L39.0553 32.5096C40.8999 32.5355 42.7404 32.3235 44.5309 31.8794Z" fill="#243F2A"/>
<path d="M98.5309 30.8794C98.5156 30.5463 98.6031 30.2165 98.7815 29.9347C98.9598 29.653 99.2205 29.4328 99.5282 29.3042C99.8359 29.1755 100.176 29.1446 100.501 29.2155C100.827 29.2864 101.124 29.4558 101.35 29.7007C101.513 29.7417 101.63 29.7711 101.793 29.8121C101.828 29.7975 101.864 29.7827 101.899 29.7678C102.692 29.4322 103.368 28.8699 103.842 28.1514C104.316 27.4329 104.567 26.5904 104.564 25.7296C104.561 24.8688 104.303 24.0281 103.824 23.3132C103.345 22.5982 102.665 22.0409 101.869 21.7112C98.6957 20.3935 95.5167 18.7158 92.1611 18.3027C90.6778 18.1208 89.1743 18.1975 87.7172 18.5296C94.4684 15.4346 101.806 13.8276 109.233 13.8172C111.097 13.8166 112.959 13.9201 114.811 14.1273C116.329 14.2986 117.837 14.5362 119.334 14.8402C127.455 16.499 135.066 20.0606 141.544 25.2324C142.909 27.7355 145.01 29.7598 147.561 31.0325C148.479 31.4936 149.458 31.8195 150.468 32C150.431 31.7176 150.408 31.4306 150.39 31.1483C150.385 31.0603 150.38 30.9678 150.376 30.8798L150.374 30.8466C150.36 30.5363 150.436 30.2285 150.593 29.9604C150.75 29.6923 150.981 29.4753 151.259 29.3355C151.536 29.1956 151.848 29.1389 152.157 29.1722C152.466 29.2055 152.758 29.3274 153 29.5232C153.15 29.6451 153.3 29.7671 153.449 29.8891C153.681 30.0743 153.908 30.2641 154.139 30.4492C154.161 30.4706 154.184 30.4907 154.209 30.5094C154.473 30.7224 154.732 30.9353 154.996 31.1483C155.599 30.7596 156.104 30.2368 156.472 29.6207C157.722 27.4867 156.856 24.5426 154.926 23.0011C152.996 21.455 150.288 21.1634 147.876 21.7004C145.824 22.2284 143.877 23.1019 142.118 24.2834C141.969 24.1677 141.826 24.0473 141.678 23.9316C138.958 21.8161 136.037 19.9723 132.957 18.4266C136.407 18.8025 139.897 18.3539 143.141 17.1176C146.163 15.8647 148.709 13.5163 151.322 11.4483C154.46 8.9642 153.091 3.87039 149.112 3.43276C149.073 3.42852 149.035 3.42437 148.996 3.42034C148.823 3.72751 148.639 4.02821 148.445 4.32241C148.198 4.692 147.845 4.97839 147.432 5.14404C147.02 5.30968 146.567 5.34684 146.133 5.25069C145.699 5.15455 145.304 4.92958 145 4.60522C144.696 4.28086 144.498 3.87228 144.43 3.43298L144.423 3.38797C143.316 3.4974 142.219 3.69081 141.141 3.96657C138.132 4.76562 135.321 6.17767 132.883 8.11411C130.446 10.0505 128.435 12.4696 126.976 15.2197C126.883 15.4003 126.791 15.5762 126.703 15.7567C122.302 14.2038 117.718 13.2297 113.066 12.859C110.321 12.6491 107.564 12.6615 104.822 12.896L104.919 12.8821C107.968 12.2896 110.72 10.6627 112.709 8.27621C115.621 4.73172 116.693 -0.276005 119.034 -4.09988C119.295 -4.50626 119.434 -4.97876 119.435 -5.46169C119.436 -5.94463 119.299 -6.41783 119.04 -6.82549C118.781 -7.23314 118.411 -7.55824 117.974 -7.76245C117.536 -7.96666 117.049 -8.0415 116.57 -7.97806C116.536 -7.97294 116.502 -7.9677 116.468 -7.9624C116.236 -7.39238 115.969 -6.83734 115.667 -6.30058C115.494 -5.9934 115.31 -5.69275 115.116 -5.39856C114.869 -5.02897 114.516 -4.74258 114.103 -4.57693C113.691 -4.41128 113.238 -4.37408 112.804 -4.47022C112.37 -4.56637 111.975 -4.79138 111.671 -5.11574C111.367 -5.4401 111.169 -5.84869 111.101 -6.28799L111.094 -6.33299C111.089 -6.3654 111.085 -6.39317 111.08 -6.42553C108.754 -5.45156 106.614 -4.08457 104.752 -2.38442C102.498 -0.284155 100.698 2.25426 99.4598 5.07524C98.222 7.89623 97.5735 10.9403 97.554 14.0208V14.0255C93.9202 14.8617 90.3831 16.0733 86.9998 17.6408V30.5558C87.1433 30.6021 87.2914 30.6437 87.4349 30.6854C87.3598 29.4899 87.4313 28.2898 87.6478 27.1117C88.8236 28.07 90.0087 29.0281 91.1845 29.9864C91.2064 30.0077 91.2296 30.0278 91.2539 30.0466C91.8556 30.5326 92.4528 31.0233 93.0546 31.5093L93.0553 31.5096C94.8999 31.5355 96.7404 31.3235 98.5309 30.8794Z" fill="#243F2A"/>
<path d="M156.531 30.8794C156.516 30.5463 156.603 30.2165 156.781 29.9347C156.96 29.653 157.221 29.4328 157.528 29.3042C157.836 29.1755 158.176 29.1446 158.501 29.2155C158.827 29.2864 159.124 29.4558 159.35 29.7007C159.513 29.7417 159.63 29.7711 159.793 29.8121C159.828 29.7975 159.864 29.7827 159.899 29.7678C160.692 29.4322 161.368 28.8699 161.842 28.1514C162.316 27.4329 162.567 26.5904 162.564 25.7296C162.561 24.8688 162.303 24.0281 161.824 23.3132C161.345 22.5982 160.665 22.0409 159.869 21.7112C156.696 20.3935 153.517 18.7158 150.161 18.3027C148.678 18.1208 147.174 18.1975 145.717 18.5296C152.468 15.4346 159.806 13.8276 167.233 13.8172C169.097 13.8166 170.959 13.9201 172.811 14.1273C174.329 14.2986 175.837 14.5362 177.334 14.8402C185.455 16.499 193.066 20.0606 199.544 25.2324C200.909 27.7355 203.01 29.7598 205.561 31.0325C206.479 31.4936 207.458 31.8195 208.468 32C208.431 31.7176 208.408 31.4306 208.39 31.1483C208.385 31.0603 208.38 30.9678 208.376 30.8798L208.374 30.8466C208.36 30.5363 208.436 30.2285 208.593 29.9604C208.75 29.6923 208.981 29.4753 209.259 29.3355C209.536 29.1956 209.848 29.1389 210.157 29.1722C210.466 29.2055 210.758 29.3274 211 29.5232C211.15 29.6451 211.3 29.7671 211.449 29.8891C211.681 30.0743 211.908 30.2641 212.139 30.4492C212.161 30.4706 212.184 30.4907 212.209 30.5094C212.473 30.7224 212.732 30.9353 212.996 31.1483C213.599 30.7596 214.104 30.2368 214.472 29.6207C215.722 27.4867 214.856 24.5426 212.926 23.0011C210.996 21.455 208.288 21.1634 205.876 21.7004C203.824 22.2284 201.877 23.1019 200.118 24.2834C199.969 24.1677 199.826 24.0473 199.678 23.9316C196.958 21.8161 194.037 19.9723 190.957 18.4266C194.407 18.8025 197.897 18.3539 201.141 17.1176C204.163 15.8647 206.709 13.5163 209.322 11.4483C212.46 8.9642 211.091 3.87039 207.112 3.43275C207.073 3.42852 207.035 3.42437 206.996 3.42034C206.823 3.72751 206.639 4.02821 206.445 4.32241C206.198 4.692 205.845 4.97839 205.432 5.14404C205.02 5.30968 204.567 5.34684 204.133 5.25069C203.699 5.15455 203.304 4.92958 203 4.60522C202.696 4.28086 202.498 3.87228 202.43 3.43298L202.423 3.38797C201.316 3.4974 200.219 3.69081 199.141 3.96657C196.132 4.76562 193.321 6.17767 190.883 8.11411C188.446 10.0505 186.435 12.4696 184.976 15.2197C184.884 15.4003 184.791 15.5762 184.703 15.7567C180.302 14.2038 175.718 13.2297 171.066 12.859C168.321 12.6491 165.564 12.6615 162.822 12.896L162.919 12.8821C165.968 12.2896 168.72 10.6627 170.709 8.27621C173.621 4.73172 174.693 -0.276006 177.034 -4.09988C177.295 -4.50626 177.434 -4.97876 177.435 -5.46169C177.436 -5.94463 177.299 -6.41783 177.04 -6.82549C176.781 -7.23314 176.411 -7.55824 175.974 -7.76245C175.536 -7.96666 175.049 -8.0415 174.57 -7.97807C174.536 -7.97294 174.502 -7.96771 174.468 -7.96241C174.236 -7.39238 173.969 -6.83734 173.667 -6.30058C173.494 -5.9934 173.31 -5.69276 173.116 -5.39856C172.869 -5.02897 172.516 -4.74258 172.103 -4.57693C171.691 -4.41128 171.238 -4.37408 170.804 -4.47022C170.37 -4.56637 169.975 -4.79138 169.671 -5.11575C169.367 -5.44011 169.169 -5.84869 169.101 -6.28799L169.094 -6.33299C169.089 -6.3654 169.085 -6.39317 169.08 -6.42553C166.754 -5.45156 164.614 -4.08457 162.752 -2.38442C160.498 -0.284156 158.698 2.25426 157.46 5.07524C156.222 7.89623 155.574 10.9403 155.554 14.0208V14.0255C151.92 14.8617 148.383 16.0733 145 17.6408V30.5558C145.143 30.6021 145.291 30.6437 145.435 30.6854C145.36 29.4899 145.431 28.2898 145.648 27.1117C146.824 28.07 148.009 29.0281 149.184 29.9864C149.206 30.0077 149.23 30.0278 149.254 30.0466C149.856 30.5326 150.453 31.0233 151.055 31.5093C152.899 31.5352 154.74 31.3235 156.531 30.8794Z" fill="#243F2A"/>
<path d="M207.531 30.8794C207.516 30.5463 207.603 30.2165 207.781 29.9347C207.96 29.653 208.221 29.4328 208.528 29.3042C208.836 29.1755 209.176 29.1446 209.501 29.2155C209.827 29.2864 210.124 29.4558 210.35 29.7007C210.513 29.7417 210.63 29.7711 210.793 29.8121C210.828 29.7975 210.864 29.7827 210.899 29.7678C211.692 29.4322 212.368 28.8699 212.842 28.1514C213.316 27.4329 213.567 26.5904 213.564 25.7296C213.561 24.8688 213.303 24.0281 212.824 23.3132C212.345 22.5982 211.665 22.0409 210.869 21.7112C207.696 20.3935 204.517 18.7158 201.161 18.3027C199.678 18.1208 198.174 18.1975 196.717 18.5296C203.468 15.4346 210.806 13.8276 218.233 13.8172C220.097 13.8166 221.959 13.9201 223.811 14.1273C225.329 14.2986 226.837 14.5362 228.334 14.8402C236.455 16.499 244.066 20.0606 250.544 25.2324C251.909 27.7355 254.01 29.7598 256.561 31.0325C257.479 31.4936 258.458 31.8195 259.468 32C259.431 31.7176 259.408 31.4306 259.39 31.1483C259.385 31.0603 259.38 30.9678 259.376 30.8798L259.374 30.8466C259.36 30.5363 259.436 30.2285 259.593 29.9604C259.75 29.6923 259.981 29.4753 260.259 29.3355C260.536 29.1956 260.848 29.1389 261.157 29.1722C261.466 29.2055 261.758 29.3274 262 29.5232C262.15 29.6451 262.3 29.7671 262.449 29.8891C262.681 30.0743 262.908 30.2641 263.139 30.4492C263.161 30.4706 263.184 30.4907 263.209 30.5094C263.473 30.7224 263.732 30.9353 263.996 31.1483C264.599 30.7596 265.104 30.2368 265.472 29.6207C266.722 27.4867 265.856 24.5426 263.926 23.0011C261.996 21.455 259.288 21.1634 256.876 21.7004C254.824 22.2284 252.877 23.1019 251.118 24.2834C250.969 24.1677 250.826 24.0473 250.678 23.9316C247.958 21.8161 245.037 19.9723 241.957 18.4266C245.407 18.8025 248.897 18.3539 252.141 17.1176C255.163 15.8647 257.709 13.5163 260.322 11.4483C263.46 8.9642 262.091 3.87039 258.112 3.43276C258.073 3.42852 258.035 3.42437 257.996 3.42034C257.823 3.72751 257.639 4.02821 257.445 4.32241C257.198 4.692 256.845 4.97839 256.432 5.14404C256.02 5.30968 255.567 5.34684 255.133 5.25069C254.699 5.15455 254.304 4.92958 254 4.60522C253.696 4.28086 253.498 3.87228 253.43 3.43298L253.423 3.38797C252.316 3.4974 251.219 3.69081 250.141 3.96657C247.132 4.76562 244.321 6.17767 241.883 8.11411C239.446 10.0505 237.435 12.4696 235.976 15.2197C235.883 15.4003 235.791 15.5762 235.703 15.7567C231.302 14.2038 226.718 13.2297 222.066 12.859C219.321 12.6491 216.564 12.6615 213.822 12.896L213.919 12.8821C216.968 12.2896 219.72 10.6627 221.709 8.27621C224.621 4.73172 225.693 -0.276005 228.034 -4.09988C228.295 -4.50626 228.434 -4.97876 228.435 -5.46169C228.436 -5.94463 228.299 -6.41783 228.04 -6.82549C227.781 -7.23314 227.411 -7.55824 226.974 -7.76245C226.536 -7.96666 226.049 -8.0415 225.57 -7.97806C225.536 -7.97294 225.502 -7.9677 225.468 -7.9624C225.236 -7.39238 224.969 -6.83734 224.667 -6.30058C224.494 -5.9934 224.31 -5.69275 224.116 -5.39856C223.869 -5.02897 223.516 -4.74258 223.103 -4.57693C222.691 -4.41128 222.238 -4.37408 221.804 -4.47022C221.37 -4.56637 220.975 -4.79138 220.671 -5.11574C220.367 -5.4401 220.169 -5.84869 220.101 -6.28799L220.094 -6.33299C220.089 -6.3654 220.085 -6.39317 220.08 -6.42553C217.754 -5.45156 215.614 -4.08457 213.752 -2.38442C211.498 -0.284155 209.698 2.25426 208.46 5.07524C207.222 7.89623 206.574 10.9403 206.554 14.0208V14.0255C202.92 14.8617 199.383 16.0733 196 17.6408V30.5558C196.143 30.6021 196.291 30.6437 196.435 30.6854C196.36 29.4899 196.431 28.2898 196.648 27.1117C197.824 28.07 199.009 29.0281 200.184 29.9864C200.206 30.0077 200.23 30.0278 200.254 30.0466C200.856 30.5326 201.453 31.0233 202.055 31.5093L202.055 31.5096C203.9 31.5355 205.74 31.3235 207.531 30.8794Z" fill="#243F2A"/>
<path d="M268.531 31.8794C268.516 31.5463 268.603 31.2165 268.781 30.9347C268.96 30.653 269.221 30.4328 269.528 30.3042C269.836 30.1755 270.176 30.1446 270.501 30.2155C270.827 30.2864 271.124 30.4558 271.35 30.7007C271.513 30.7417 271.63 30.7711 271.793 30.8121C271.828 30.7975 271.864 30.7827 271.899 30.7678C272.692 30.4322 273.368 29.8699 273.842 29.1514C274.316 28.4329 274.567 27.5904 274.564 26.7296C274.561 25.8688 274.303 25.0281 273.824 24.3132C273.345 23.5982 272.665 23.0409 271.869 22.7112C268.696 21.3935 265.517 19.7158 262.161 19.3027C260.678 19.1208 259.174 19.1975 257.717 19.5296C264.468 16.4346 271.806 14.8276 279.233 14.8172C281.097 14.8166 282.959 14.9201 284.811 15.1273C286.329 15.2986 287.837 15.5362 289.334 15.8402C297.455 17.499 305.066 21.0606 311.544 26.2324C312.909 28.7355 315.01 30.7598 317.561 32.0325C318.479 32.4936 319.458 32.8195 320.468 33C320.431 32.7176 320.408 32.4306 320.39 32.1483C320.385 32.0603 320.38 31.9678 320.376 31.8798L320.374 31.8466C320.36 31.5363 320.436 31.2285 320.593 30.9604C320.75 30.6923 320.981 30.4753 321.259 30.3355C321.536 30.1956 321.848 30.1389 322.157 30.1722C322.466 30.2055 322.758 30.3274 323 30.5232C323.15 30.6451 323.3 30.7671 323.449 30.8891C323.681 31.0743 323.908 31.2641 324.139 31.4492C324.161 31.4706 324.184 31.4907 324.209 31.5094C324.473 31.7224 324.732 31.9353 324.996 32.1483C325.599 31.7596 326.104 31.2368 326.472 30.6207C327.722 28.4867 326.856 25.5426 324.926 24.0011C322.996 22.455 320.288 22.1634 317.876 22.7004C315.824 23.2284 313.877 24.1019 312.118 25.2834C311.969 25.1677 311.826 25.0473 311.678 24.9316C308.958 22.8161 306.037 20.9723 302.957 19.4266C306.407 19.8025 309.897 19.3539 313.141 18.1176C316.163 16.8647 318.709 14.5163 321.322 12.4483C324.46 9.9642 323.091 4.87039 319.112 4.43276C319.073 4.42852 319.035 4.42437 318.996 4.42034C318.823 4.72751 318.639 5.02821 318.445 5.32241C318.198 5.692 317.845 5.97839 317.432 6.14404C317.02 6.30968 316.567 6.34684 316.133 6.25069C315.699 6.15455 315.304 5.92958 315 5.60522C314.696 5.28086 314.498 4.87228 314.43 4.43298L314.423 4.38797C313.316 4.4974 312.219 4.69081 311.141 4.96657C308.132 5.76562 305.321 7.17767 302.883 9.11411C300.446 11.0505 298.435 13.4696 296.976 16.2197C296.883 16.4003 296.791 16.5762 296.703 16.7567C292.302 15.2038 287.718 14.2297 283.066 13.859C280.321 13.6491 277.564 13.6615 274.822 13.896L274.919 13.8821C277.968 13.2896 280.72 11.6627 282.709 9.27621C285.621 5.73172 286.693 0.723995 289.034 -3.09988C289.295 -3.50626 289.434 -3.97876 289.435 -4.46169C289.436 -4.94463 289.299 -5.41783 289.04 -5.82549C288.781 -6.23314 288.411 -6.55824 287.974 -6.76245C287.536 -6.96666 287.049 -7.0415 286.57 -6.97806C286.536 -6.97294 286.502 -6.9677 286.468 -6.9624C286.236 -6.39238 285.969 -5.83734 285.667 -5.30058C285.494 -4.9934 285.31 -4.69275 285.116 -4.39856C284.869 -4.02897 284.516 -3.74258 284.103 -3.57693C283.691 -3.41128 283.238 -3.37408 282.804 -3.47022C282.37 -3.56637 281.975 -3.79138 281.671 -4.11574C281.367 -4.4401 281.169 -4.84869 281.101 -5.28799L281.094 -5.33299C281.089 -5.3654 281.085 -5.39317 281.08 -5.42553C278.754 -4.45156 276.614 -3.08457 274.752 -1.38442C272.498 0.715845 270.698 3.25426 269.46 6.07524C268.222 8.89623 267.574 11.9403 267.554 15.0208V15.0255C263.92 15.8617 260.383 17.0733 257 18.6408V31.5558C257.143 31.6021 257.291 31.6437 257.435 31.6854C257.36 30.4899 257.431 29.2898 257.648 28.1117C258.824 29.07 260.009 30.0281 261.184 30.9864C261.206 31.0077 261.23 31.0278 261.254 31.0466C261.856 31.5326 262.453 32.0233 263.055 32.5093L263.055 32.5096C264.9 32.5355 266.74 32.3235 268.531 31.8794Z" fill="#243F2A"/>
<path d="M476.629 461.355V461.361C476.23 461.757 475.812 462.136 475.379 462.493C470.851 466.215 467.223 469.248 462.961 471.522C448.308 473.18 433.636 474.615 418.944 475.828C381.129 478.946 343.241 480.603 305.278 480.801C228.265 481.254 147.295 484.026 79.8654 441.027C57.4287 426.719 24.9273 456.06 2.70002 440.37C-3.70694 435.833 -9.66046 430.5 -15.0532 424.466C-16.5097 418.315 -17.5659 412.048 -18.2131 405.716C-19.9974 388.613 -18.7398 371.272 -14.5168 354.745C-12.4736 346.838 -9.68608 339.211 -6.20368 332C4.12245 336.26 14.0253 342.393 23.4507 348.889C40.7364 360.787 57.5447 374.298 76.7942 381.11C105.169 391.153 135.867 385.631 164.66 377.325C193.453 369.019 222.054 357.953 251.728 357.019C291.526 355.769 329.834 372.804 366.881 389.569C404.046 406.389 441.216 423.208 478.391 440.025C479.208 442.577 479.938 445.166 480.581 447.793C481.895 453.134 479.991 457.972 476.629 461.355Z" fill="#1F7F44"/>
<path d="M45.538 397.786L46.9029 396.948L44.2974 391.148L42.2828 392.386L45.538 397.786Z" fill="#FFB6B6"/>
<path d="M35.8011 397.831C35.9125 397.885 36.0238 397.938 36.1361 397.992C36.3597 398.098 36.5852 398.203 36.8105 398.305C36.9237 398.356 37.0379 398.407 37.1509 398.457L37.1513 398.46L37.1577 398.461L37.1599 398.462L37.3267 398.485L37.4952 397.844L37.5731 397.548L37.6828 397.13L37.8842 396.365L38.9444 392.337L36.6039 392.014L36.5552 392.372L36.5541 392.372L36.5301 392.55L36.0728 395.866L35.9797 396.544L35.9765 396.564L35.9198 396.97L35.8713 397.321L35.8175 397.713L35.8011 397.831Z" fill="#FFB6B6"/>
<path d="M20.7623 385.655C20.9314 385.872 21.1035 386.088 21.2764 386.301C21.5978 386.699 21.9259 387.089 22.2608 387.472C22.2609 387.473 22.2619 387.473 22.2631 387.474C22.4496 387.614 22.6518 387.731 22.8656 387.824C22.8747 387.829 22.8846 387.833 22.8936 387.837C23.0508 387.904 23.2156 387.95 23.3843 387.977C23.445 387.985 23.5067 387.994 23.5674 388.002C23.7859 388.03 24.0016 388.051 24.2157 388.067C24.5964 388.095 24.9716 388.104 25.3413 388.094C25.3712 388.094 25.401 388.093 25.4308 388.092C26.9531 388.044 28.4049 387.711 29.9091 387.258C30.652 387.034 31.4077 386.781 32.1902 386.518C32.4458 386.432 32.7025 386.346 32.9624 386.26C32.9821 386.254 33.0026 386.246 33.0233 386.24C33.3946 386.117 33.7723 385.994 34.1596 385.871C34.6471 385.716 35.1508 385.563 35.6751 385.413L35.7162 386.169C35.7454 386.752 35.6851 387.335 35.5372 387.899C35.3793 388.59 35.2543 389.137 35.7509 390.196L35.9905 390.709C35.923 390.983 35.9201 391.269 35.9818 391.544C36.0435 391.82 36.1683 392.077 36.3463 392.297L36.3891 392.349L35.2647 396.385L35.1918 396.647L35.9762 396.564L36.9412 396.464L38.5764 396.292L40.4383 391.311L40.5275 391.073L40.5263 391.061L39.3264 381.99C39.3148 381.91 39.2999 381.83 39.2809 381.75C39.1996 381.39 39.0473 381.05 38.833 380.749C38.6187 380.448 38.3466 380.193 38.0327 379.999C37.7317 379.811 37.3963 379.684 37.046 379.627C36.6956 379.57 36.3374 379.582 35.9921 379.665L35.1955 379.854L33.5679 380.241L32.4215 380.514L32.3986 380.52L29.0175 381.323L28.6661 380.346L28.6189 380.334L27.1202 379.957L21.9368 378.652L21.9237 378.649L21.5827 378.563L21.5503 378.631C21.5407 378.651 21.5311 378.671 21.5225 378.691C21.2592 379.307 21.0594 379.948 20.9263 380.605C20.6994 381.678 20.5337 382.763 20.4302 383.855C20.4255 383.903 20.4215 383.946 20.4181 383.985L20.4162 383.997C20.4149 384.015 20.414 384.027 20.4133 384.03C20.3486 384.522 20.4903 385.098 20.7623 385.655Z" fill="#2F2E41"/>
<path d="M20.1991 382.325C20.2079 382.256 20.2207 382.185 20.2348 382.116C20.3495 381.595 20.4928 381.08 20.6641 380.575C20.8556 380 21.0925 379.38 21.3814 378.706C21.5211 378.38 21.6725 378.04 21.8356 377.686C21.9173 377.509 22.0025 377.328 22.0913 377.144C22.0946 377.135 22.0984 377.127 22.1026 377.119L22.1279 377.065L27.1357 377.207L27.3036 377.843L27.8809 378.652L27.8652 378.685C27.8662 378.684 27.8663 378.685 27.8652 378.685L27.8321 378.561L27.9888 378.652L29.5801 379.808L29.5884 379.807L32.2801 379.166L35.0541 378.506L36.5442 378.152C36.8895 378.07 37.2478 378.057 37.5981 378.114C37.9485 378.172 38.2839 378.298 38.5849 378.486C38.8987 378.681 39.1708 378.936 39.3851 379.237C39.5994 379.537 39.7517 379.878 39.8331 380.238C39.8503 380.311 39.8647 380.386 39.8757 380.461L41.6558 383.688C42.7208 385.618 43.4885 387.698 43.9329 389.857L45.3291 393.088L45.1817 393.118L42.9886 393.556L42.4095 393.673L40.924 391.928C40.7548 391.729 40.5922 391.523 40.4386 391.311C40.1861 390.964 39.9558 390.602 39.7494 390.226L36.2667 383.889C36.0552 383.949 35.8457 384.007 35.6381 384.062C34.6782 384.323 33.7543 384.551 32.8665 384.745C29.9798 385.378 27.453 385.67 25.1722 385.63C24.5318 385.619 23.9099 385.582 23.3066 385.518C23.0854 385.496 22.8667 385.469 22.6504 385.439C22.5996 385.433 22.5498 385.426 22.4999 385.419C22.0518 385.352 21.6275 385.174 21.266 384.901C20.9045 384.628 20.6172 384.269 20.4305 383.856C20.2091 383.378 20.1288 382.847 20.1991 382.325Z" fill="#2F2E41"/>
<path d="M44.9758 396.854L46.4525 395.945L46.684 395.802L47.1741 396.718L49.9564 397.03C50.094 397.046 50.223 397.105 50.3247 397.199C50.4264 397.292 50.4953 397.416 50.5215 397.552C50.5478 397.688 50.5298 397.829 50.4703 397.954C50.4109 398.079 50.313 398.182 50.191 398.247L47.6478 399.61L46.7246 398.94L47.0386 399.937L46.0807 400.451L44.617 397.075L44.9758 396.854Z" fill="#2F2E41"/>
<path d="M35.2648 396.385L35.1919 396.647L35.2912 396.636L35.2648 396.385Z" fill="#2F2E41"/>
<path d="M35.8383 396.633L37.527 397.026L37.792 397.088L37.4961 398.083L39.253 400.263C39.34 400.371 39.3902 400.503 39.3964 400.642C39.4026 400.78 39.3644 400.917 39.2874 401.032C39.2104 401.147 39.0986 401.234 38.9684 401.281C38.8382 401.328 38.6964 401.332 38.5637 401.293L35.7972 400.472L35.6129 399.346L35.1345 400.275L34.0924 399.967L35.4276 396.538L35.8383 396.633Z" fill="#2F2E41"/>
<path d="M34.4598 348.789C34.5179 348.949 34.5402 349.119 34.5251 349.289C34.5101 349.458 34.4581 349.622 34.3728 349.769C34.2875 349.917 34.171 350.043 34.0314 350.141C33.8919 350.238 33.7327 350.303 33.5651 350.332L32.8976 354.413L31.3183 352.956L32.1942 349.304C32.164 349.02 32.2393 348.734 32.4059 348.501C32.5724 348.268 32.8187 348.104 33.0979 348.04C33.3772 347.977 33.6701 348.018 33.9211 348.156C34.1721 348.294 34.3637 348.519 34.4598 348.789Z" fill="#FFB6B6"/>
<path d="M33.1827 360.739L27.1985 368.516C26.7235 369.132 26.0236 369.534 25.2523 369.634C24.481 369.735 23.7014 369.525 23.0844 369.052C22.7432 368.789 22.4639 368.454 22.2664 368.072C22.069 367.689 21.9582 367.268 21.942 366.837C21.9258 366.407 22.0045 365.978 22.1725 365.582C22.3405 365.185 22.5938 364.831 22.9143 364.543L29.3986 358.725L31.0033 351.285L33.437 351.351L33.1827 360.739Z" fill="#6C63FF"/>
<path d="M18.9843 371.877L20.3292 377.507C19.1797 381.618 19.4025 383.405 20.23 384.167L28.0205 378.699L28.0729 378.312L27.8547 375.694L27.9819 372.899C28.0537 372.591 29.565 370.413 26.8922 367.767L21.876 363.789L18.8775 364.411C18.7254 365.791 19.7864 366.238 18.9864 366.761C17.4899 369.111 17.8606 369.328 18.9843 371.877Z" fill="#6C63FF"/>
<path d="M17.3153 389.141C17.2082 389.009 17.1314 388.855 17.0903 388.69C17.0492 388.524 17.0447 388.352 17.0773 388.185C17.1099 388.018 17.1786 387.861 17.2788 387.723C17.3789 387.586 17.508 387.472 17.657 387.39L16.9554 383.314L18.924 384.176L19.2883 387.914C19.4099 388.173 19.4321 388.468 19.3507 388.743C19.2694 389.017 19.0901 389.252 18.8469 389.404C18.6037 389.555 18.3134 389.612 18.0312 389.563C17.7489 389.515 17.4942 389.364 17.3153 389.141Z" fill="#FFB6B6"/>
<path d="M14.621 377.429L17.7382 368.124C17.9861 367.387 18.5163 366.778 19.2125 366.431C19.9087 366.085 20.714 366.028 21.4518 366.275C21.8601 366.411 22.2333 366.636 22.5449 366.934C22.8565 367.231 23.0988 367.593 23.2546 367.995C23.4105 368.396 23.476 368.827 23.4466 369.256C23.4173 369.686 23.2937 370.104 23.0846 370.48L18.8553 378.097L19.7677 385.653L17.4459 386.385L14.621 377.429Z" fill="#6C63FF"/>
<path d="M20.9288 356.594C22.5244 358.373 22.4811 360.939 20.8793 362.712C19.1473 364.629 16.3473 365.061 14.7614 362.663C12.9955 359.992 13.4633 358.517 14.8109 356.545C16.3901 354.233 19.2047 354.673 20.9288 356.594Z" fill="#2F2E41"/>
<path d="M17.0171 362.556C17.7353 363.11 18.6441 363.357 19.5438 363.241C20.4435 363.126 21.2606 362.658 21.8154 361.94C22.3703 361.223 22.6177 360.314 22.5031 359.414C22.3885 358.514 21.9214 357.697 21.2044 357.141L21.1656 357.111C20.4424 356.578 19.5388 356.351 18.6497 356.479C17.7606 356.606 16.9573 357.078 16.413 357.793C15.8686 358.507 15.627 359.407 15.7401 360.298C15.8532 361.189 16.3121 362 17.0177 362.556L17.0171 362.556Z" fill="#FFB6B6"/>
<path d="M21.8514 355.99C21.4511 356.645 20.8957 357.192 20.2341 357.581C20.0464 357.454 19.8389 357.359 19.6199 357.3C19.7612 357.464 19.8772 357.648 19.9642 357.847C19.8227 358.594 18.6483 359.418 17.5343 360.238L15.107 357.771L16.9571 355.95C18.3852 354.269 20.5873 354.233 21.8514 355.99Z" fill="#2F2E41"/>
<path d="M13.5383 356.89C13.2047 356.832 12.8428 357.02 12.6153 357.287C12.4039 357.56 12.2591 357.879 12.1927 358.218C12.0558 358.774 12.0041 359.348 12.0393 359.92C12.071 360.414 12.2389 360.977 12.7254 361.109C13.1313 361.219 13.599 360.956 13.8488 360.597C14.0985 360.238 14.1777 359.806 14.2349 359.39C14.2922 358.973 14.3372 358.545 14.5339 358.16L14.2795 358.373C14.2966 358.07 14.2609 357.765 14.1741 357.474C14.1283 357.329 14.0455 357.2 13.934 357.097C13.8224 356.995 13.686 356.923 13.5383 356.89Z" fill="#2F2E41"/>
<path d="M17.4134 356.26L15.4284 358.213C14.8917 358.741 14.5867 359.461 14.5806 360.214C14.5745 360.967 14.8678 361.692 15.396 362.228C16.1653 363.01 17.1984 363.477 18.2934 363.537C19.3884 363.598 20.4667 363.248 21.3176 362.556L18.6733 361.241L21.9703 361.942L22.4957 361.425C19.2328 361.693 17.9787 359.413 17.4134 356.26Z" fill="#2F2E41"/>
</svg>
