<svg width="1300" height="855" viewBox="0 0 1300 855" fill="none" xmlns="http://www.w3.org/2000/svg">
<rect width="1300" height="854" fill="#7E97BA"/>
<path d="M690.379 143.748H674.839C675.88 143.705 676.918 143.932 677.89 144.415C678.862 144.898 679.749 145.627 680.497 146.56C681.246 147.492 681.841 148.609 682.247 149.844C682.654 151.078 682.863 152.405 682.863 153.746C682.863 155.087 682.654 156.414 682.247 157.648C681.841 158.883 681.246 160 680.497 160.932C679.749 161.865 678.862 162.594 677.89 163.077C676.918 163.56 675.88 163.787 674.839 163.744H584.944C582.926 163.66 581.013 162.57 579.609 160.704C578.205 158.839 577.42 156.343 577.42 153.746C577.42 151.149 578.205 148.653 579.609 146.788C581.013 144.922 582.926 143.832 584.944 143.748H600.484C598.424 143.748 596.449 142.695 594.993 140.821C593.536 138.947 592.718 136.406 592.718 133.755C592.718 131.105 593.536 128.563 594.993 126.689C596.449 124.815 598.424 123.763 600.484 123.763H589.387C587.37 123.679 585.457 122.589 584.053 120.723C582.649 118.857 581.863 116.362 581.863 113.765C581.863 111.167 582.649 108.672 584.053 106.806C585.457 104.94 587.37 103.85 589.387 103.767H679.282C681.3 103.85 683.213 104.94 684.617 106.806C686.021 108.672 686.806 111.167 686.806 113.765C686.806 116.362 686.021 118.857 684.617 120.723C683.213 122.589 681.3 123.679 679.282 123.763H690.379C692.439 123.763 694.414 124.815 695.871 126.689C697.327 128.563 698.145 131.105 698.145 133.755C698.145 136.406 697.327 138.947 695.871 140.821C694.414 142.695 692.439 143.748 690.379 143.748Z" fill="white"/>
<path d="M1114.57 157.238H1099.03C1100.07 157.194 1101.11 157.421 1102.08 157.904C1103.05 158.387 1103.94 159.117 1104.69 160.049C1105.44 160.982 1106.03 162.099 1106.44 163.333C1106.85 164.568 1107.06 165.895 1107.06 167.236C1107.06 168.576 1106.85 169.903 1106.44 171.138C1106.03 172.372 1105.44 173.489 1104.69 174.422C1103.94 175.354 1103.05 176.084 1102.08 176.567C1101.11 177.05 1100.07 177.277 1099.03 177.233H1009.14C1007.12 177.15 1005.21 176.06 1003.8 174.194C1002.4 172.328 1001.61 169.833 1001.61 167.236C1001.61 164.638 1002.4 162.143 1003.8 160.277C1005.21 158.411 1007.12 157.321 1009.14 157.238H1024.68C1022.62 157.238 1020.64 156.185 1019.19 154.311C1017.73 152.437 1016.91 149.895 1016.91 147.245C1016.91 144.595 1017.73 142.053 1019.19 140.179C1020.64 138.305 1022.62 137.252 1024.68 137.252H1013.58C1011.56 137.169 1009.65 136.079 1008.25 134.213C1006.84 132.347 1006.06 129.851 1006.06 127.254C1006.06 124.657 1006.84 122.162 1008.25 120.296C1009.65 118.43 1011.56 117.34 1013.58 117.256H1103.48C1105.49 117.34 1107.41 118.43 1108.81 120.296C1110.21 122.162 1111 124.657 1111 127.254C1111 129.851 1110.21 132.347 1108.81 134.213C1107.41 136.079 1105.49 137.169 1103.48 137.252H1114.57C1116.63 137.252 1118.61 138.305 1120.06 140.179C1121.52 142.053 1122.34 144.595 1122.34 147.245C1122.34 149.895 1121.52 152.437 1120.06 154.311C1118.61 156.185 1116.63 157.238 1114.57 157.238Z" fill="white"/>
<path d="M333.12 143.748H317.58C318.622 143.705 319.659 143.932 320.631 144.415C321.603 144.898 322.49 145.627 323.238 146.56C323.987 147.492 324.582 148.609 324.989 149.844C325.395 151.078 325.605 152.405 325.605 153.746C325.605 155.087 325.395 156.414 324.989 157.648C324.582 158.883 323.987 160 323.238 160.932C322.49 161.865 321.603 162.594 320.631 163.077C319.659 163.56 318.622 163.787 317.58 163.744H227.685C225.667 163.66 223.754 162.57 222.35 160.704C220.946 158.839 220.161 156.343 220.161 153.746C220.161 151.149 220.946 148.653 222.35 146.788C223.754 144.922 225.667 143.832 227.685 143.748H243.225C241.166 143.748 239.19 142.695 237.734 140.821C236.277 138.947 235.459 136.406 235.459 133.755C235.459 131.105 236.277 128.563 237.734 126.689C239.19 124.815 241.166 123.763 243.225 123.763H232.129C230.111 123.679 228.198 122.589 226.794 120.723C225.39 118.857 224.605 116.362 224.605 113.765C224.605 111.167 225.39 108.672 226.794 106.806C228.198 104.94 230.111 103.85 232.129 103.767H322.024C324.041 103.85 325.954 104.94 327.358 106.806C328.762 108.672 329.548 111.167 329.548 113.765C329.548 116.362 328.762 118.857 327.358 120.723C325.954 122.589 324.041 123.679 322.024 123.763H333.12C335.18 123.763 337.156 124.815 338.612 126.689C340.068 128.563 340.887 131.105 340.887 133.755C340.887 136.406 340.068 138.947 338.612 140.821C337.156 142.695 335.18 143.748 333.12 143.748Z" fill="white"/>
<path d="M898.443 335.716H882.903C883.944 335.673 884.982 335.9 885.954 336.383C886.926 336.866 887.813 337.595 888.561 338.528C889.31 339.461 889.905 340.578 890.311 341.812C890.718 343.047 890.927 344.374 890.927 345.714C890.927 347.055 890.718 348.382 890.311 349.617C889.905 350.851 889.31 351.968 888.561 352.901C887.813 353.833 886.926 354.563 885.954 355.046C884.982 355.529 883.944 355.755 882.903 355.712H793.008C790.99 355.629 789.077 354.539 787.673 352.673C786.269 350.807 785.484 348.312 785.484 345.714C785.484 343.117 786.269 340.622 787.673 338.756C789.077 336.89 790.99 335.8 793.008 335.716H808.548C806.488 335.716 804.513 334.664 803.057 332.79C801.6 330.916 800.782 328.374 800.782 325.724C800.782 323.073 801.6 320.532 803.057 318.658C804.513 316.784 806.488 315.731 808.548 315.731H797.451C795.434 315.647 793.521 314.557 792.117 312.691C790.712 310.826 789.927 308.33 789.927 305.733C789.927 303.136 790.712 300.64 792.117 298.775C793.521 296.909 795.434 295.819 797.451 295.735H887.346C889.364 295.819 891.277 296.909 892.681 298.775C894.085 300.64 894.87 303.136 894.87 305.733C894.87 308.33 894.085 310.826 892.681 312.691C891.277 314.557 889.364 315.647 887.346 315.731H898.443C900.503 315.731 902.478 316.784 903.935 318.658C905.391 320.532 906.209 323.073 906.209 325.724C906.209 328.374 905.391 330.916 903.935 332.79C902.478 334.664 900.503 335.716 898.443 335.716Z" fill="white"/>
<path d="M477.475 317.038H461.935C462.977 316.995 464.014 317.222 464.986 317.705C465.958 318.188 466.845 318.917 467.593 319.85C468.342 320.783 468.937 321.9 469.344 323.134C469.75 324.369 469.96 325.696 469.96 327.036C469.96 328.377 469.75 329.704 469.344 330.939C468.937 332.173 468.342 333.29 467.593 334.223C466.845 335.155 465.958 335.885 464.986 336.368C464.014 336.851 462.977 337.077 461.935 337.034H372.04C370.022 336.951 368.109 335.861 366.705 333.995C365.301 332.129 364.516 329.634 364.516 327.036C364.516 324.439 365.301 321.944 366.705 320.078C368.109 318.212 370.022 317.122 372.04 317.038H387.58C385.521 317.038 383.545 315.986 382.089 314.112C380.632 312.238 379.814 309.696 379.814 307.046C379.814 304.395 380.632 301.854 382.089 299.98C383.545 298.106 385.521 297.053 387.58 297.053H376.483C374.466 296.969 372.553 295.879 371.149 294.013C369.745 292.148 368.96 289.652 368.96 287.055C368.96 284.458 369.745 281.962 371.149 280.097C372.553 278.231 374.466 277.141 376.483 277.057H466.379C468.396 277.141 470.309 278.231 471.713 280.097C473.117 281.962 473.903 284.458 473.903 287.055C473.903 289.652 473.117 292.148 471.713 294.013C470.309 295.879 468.396 296.969 466.379 297.053H477.475C479.535 297.053 481.51 298.106 482.967 299.98C484.423 301.854 485.242 304.395 485.242 307.046C485.242 309.696 484.423 312.238 482.967 314.112C481.51 315.986 479.535 317.038 477.475 317.038Z" fill="white"/>
<path d="M208.927 347.131H193.386C194.428 347.088 195.465 347.314 196.437 347.797C197.409 348.28 198.296 349.01 199.045 349.942C199.793 350.875 200.388 351.992 200.795 353.226C201.201 354.461 201.411 355.788 201.411 357.129C201.411 358.469 201.201 359.796 200.795 361.031C200.388 362.265 199.793 363.382 199.045 364.315C198.296 365.248 197.409 365.977 196.437 366.46C195.465 366.943 194.428 367.17 193.386 367.127H103.491C101.474 367.043 99.5606 365.953 98.1565 364.087C96.7524 362.221 95.9673 359.726 95.9673 357.129C95.9673 354.531 96.7524 352.036 98.1565 350.17C99.5606 348.304 101.474 347.214 103.491 347.131H119.031C116.972 347.131 114.996 346.078 113.54 344.204C112.084 342.33 111.265 339.788 111.265 337.138C111.265 334.488 112.084 331.946 113.54 330.072C114.996 328.198 116.972 327.145 119.031 327.145H107.935C105.917 327.062 104.004 325.972 102.6 324.106C101.196 322.24 100.411 319.745 100.411 317.147C100.411 314.55 101.196 312.055 102.6 310.189C104.004 308.323 105.917 307.233 107.935 307.149H197.83C199.847 307.233 201.76 308.323 203.164 310.189C204.569 312.055 205.354 314.55 205.354 317.147C205.354 319.745 204.569 322.24 203.164 324.106C201.76 325.972 199.847 327.062 197.83 327.145H208.927C210.986 327.145 212.962 328.198 214.418 330.072C215.875 331.946 216.693 334.488 216.693 337.138C216.693 339.788 215.875 342.33 214.418 344.204C212.962 346.078 210.986 347.131 208.927 347.131Z" fill="white"/>
<path d="M195.723 840.406C196.266 842.634 196.988 844.815 197.883 846.926C211.783 841.466 225.836 836.233 240.043 831.226C239.923 830.636 239.803 830.016 239.653 829.406C238.222 823.115 235.167 817.309 230.793 812.566C225.113 806.566 217.793 803.666 210.673 805.436C203.553 807.206 198.383 813.266 196.023 821.236C194.258 827.492 194.155 834.099 195.723 840.406Z" fill="#A1616A"/>
<path d="M215.694 828.477C227.898 825.752 234.834 810.307 231.188 793.981C227.541 777.654 214.693 766.628 202.49 769.354C190.287 772.079 183.35 787.524 186.996 803.85C190.643 820.177 203.491 831.203 215.694 828.477Z" fill="#A1616A"/>
<path d="M207.131 792.461C219.334 789.736 226.271 774.291 222.624 757.965C218.978 741.638 206.129 730.612 193.926 733.338C181.723 736.063 174.787 751.508 178.433 767.834C182.079 784.161 194.928 795.187 207.131 792.461Z" fill="#A1616A"/>
<path d="M198.55 756.467C210.754 753.742 217.69 738.297 214.044 721.97C210.397 705.644 197.549 694.618 185.346 697.344C173.143 700.069 166.206 715.514 169.852 731.84C173.499 748.167 186.347 759.192 198.55 756.467Z" fill="#A1616A"/>
<path d="M189.97 720.463C202.173 717.737 209.109 702.293 205.463 685.966C201.817 669.64 188.968 658.614 176.765 661.34C164.562 664.065 157.625 679.51 161.272 695.836C164.918 712.163 177.767 723.188 189.97 720.463Z" fill="#A1616A"/>
<path d="M206.913 423.926C208.993 419.259 210.751 414.455 212.173 409.546L152.173 414.266L214.713 399.136C217.701 383.409 217.322 367.227 213.603 351.656C210.341 337.872 204.494 324.832 196.373 313.226L123.173 378.676L186.543 301.206C160.673 273.586 121.543 260.446 82.6526 270.206C24.5426 284.736 -11.0674 344.776 3.11261 404.306C8.74918 428.352 22.2619 449.823 41.5026 465.306C38.2701 472.574 35.8132 480.163 34.1726 487.946L118.593 509.086L32.1726 501.596C31.139 513.663 32.0437 525.816 34.8526 537.596C40.499 561.64 54.014 583.109 73.2526 598.596C63.1421 621.298 60.8081 646.703 66.6126 670.866C80.7926 730.396 139.393 766.866 197.503 752.346C255.613 737.826 291.223 677.786 277.043 618.257C271.396 594.213 257.881 572.744 238.643 557.256C248.753 534.555 251.087 509.15 245.283 484.986C239.661 460.923 226.155 439.43 206.913 423.926Z" fill="#CDE3CB"/>
<path opacity="0.1" d="M34.8727 537.557C40.5191 561.6 54.0341 583.069 73.2727 598.557C63.1623 621.258 60.8282 646.663 66.6327 670.827C80.8127 730.357 139.413 766.827 197.523 752.307C255.633 737.787 291.243 677.747 277.063 618.217C271.416 594.173 257.901 572.704 238.663 557.217C248.403 535.357 31.9927 525.487 34.8727 537.557Z" fill="black"/>
<path opacity="0.2" d="M1276.19 785.236H1139.05C1135.97 785.137 1133.05 783.846 1130.91 781.635C1128.77 779.424 1127.57 776.468 1127.57 773.39C1127.57 770.313 1128.77 767.357 1130.91 765.146C1133.05 762.935 1135.97 761.644 1139.05 761.545H1162.76C1159.62 761.545 1156.6 760.297 1154.38 758.077C1152.16 755.856 1150.91 752.845 1150.91 749.705C1150.91 746.565 1152.16 743.553 1154.38 741.333C1156.6 739.113 1159.62 737.865 1162.76 737.865H1145.83C1142.75 737.766 1139.83 736.475 1137.69 734.264C1135.55 732.053 1134.35 729.097 1134.35 726.019C1134.35 722.942 1135.55 719.985 1137.69 717.775C1139.83 715.564 1142.75 714.273 1145.83 714.173H1217.41C1201.53 706.797 1182.96 701.547 1161.56 698.793C966.388 673.749 896.703 690.31 872.121 707.399C841.794 728.423 807.96 743.889 771.801 751.34C651.378 776.163 426.169 806.026 222.047 741.775C120.595 709.809 45.2018 763.807 0 854H1300C1298.3 827.788 1293.22 803.592 1283.9 782.396C1281.75 784.232 1279.02 785.239 1276.19 785.236Z" fill="#2C9B22"/>
<path d="M930.289 844.427C929.925 847.031 929.781 849.66 929.859 852.287C947.292 852.567 964.792 853.154 982.359 854.047C982.479 853.357 982.599 852.657 982.699 851.947C983.831 844.615 982.986 837.113 980.249 830.217C976.629 821.397 969.879 815.087 961.429 813.867C952.979 812.647 944.739 816.807 938.789 824.227C934.207 830.083 931.273 837.057 930.289 844.427Z" fill="#A0616A"/>
<path d="M988.766 810.052C991.489 791.105 981.962 774.058 967.487 771.977C953.011 769.896 939.068 783.569 936.345 802.517C933.621 821.464 943.148 838.511 957.624 840.592C972.099 842.673 986.042 829 988.766 810.052Z" fill="#A0616A"/>
<path d="M994.79 768.118C997.514 749.17 987.987 732.123 973.511 730.043C959.035 727.962 945.093 741.635 942.369 760.582C939.645 779.53 949.172 796.576 963.648 798.657C978.124 800.738 992.067 787.065 994.79 768.118Z" fill="#A0616A"/>
<path d="M1000.81 726.193C1003.54 707.245 994.01 690.199 979.535 688.118C965.059 686.037 951.116 699.71 948.392 718.657C945.669 737.605 955.196 754.652 969.672 756.733C984.147 758.813 998.09 745.14 1000.81 726.193Z" fill="#A0616A"/>
<path d="M1006.85 684.26C1009.57 665.312 1000.04 648.266 985.569 646.185C971.093 644.104 957.15 657.777 954.427 676.724C951.703 695.672 961.23 712.719 975.706 714.799C990.181 716.88 1004.12 703.207 1006.85 684.26Z" fill="#A0616A"/>
<path d="M1119.95 407.617C1124.19 403.566 1128.14 399.222 1131.77 394.617L1064.54 373.497L1138.93 384.747C1148.3 370.229 1154.62 353.95 1157.49 336.908C1160.36 319.865 1159.72 302.416 1155.62 285.627L1048.26 323.067L1150.14 268.567C1143.65 252.408 1133.9 237.759 1121.51 225.531C1109.11 213.303 1094.32 203.759 1078.08 197.494C1061.83 191.229 1044.47 188.376 1027.07 189.114C1009.67 189.852 992.612 194.164 976.954 201.783C961.296 209.401 947.374 220.163 936.056 233.396C924.739 246.63 916.267 262.052 911.17 278.703C906.072 295.353 904.458 312.875 906.428 330.177C908.398 347.478 913.909 364.189 922.619 379.267C916.032 385.561 910.142 392.544 905.049 400.097L987.759 459.377L897.049 413.697C887.506 432.516 882.807 453.418 883.376 474.51C883.946 495.603 889.765 516.22 900.309 534.497C883.083 550.92 870.826 571.859 864.94 594.919C859.054 617.98 859.775 642.231 867.022 664.901C874.269 687.571 887.749 707.744 905.92 723.114C924.091 738.484 946.221 748.43 969.779 751.816C993.337 755.202 1017.37 751.89 1039.14 742.26C1060.9 732.629 1079.52 717.069 1092.85 697.357C1106.19 677.646 1113.71 654.579 1114.56 630.794C1115.41 607.01 1109.54 583.467 1097.64 562.857C1118.22 543.23 1131.62 517.253 1135.66 489.099C1139.71 460.945 1134.17 432.248 1119.95 407.617Z" fill="#CDE3CB"/>
<path opacity="0.1" d="M884.599 453.017C880.51 481.171 886.045 509.882 900.309 534.497C883.083 550.92 870.826 571.859 864.94 594.919C859.054 617.98 859.775 642.231 867.022 664.901C874.269 687.571 887.749 707.744 905.92 723.114C924.091 738.484 946.221 748.43 969.779 751.816C993.337 755.202 1017.37 751.89 1039.14 742.26C1060.9 732.629 1079.52 717.069 1092.85 697.357C1106.19 677.646 1113.71 654.579 1114.56 630.794C1115.41 607.01 1109.54 583.467 1097.64 562.857C1117.54 543.907 886.629 438.927 884.599 453.017Z" fill="black"/>
</svg>
