<svg width="1034" height="80" viewBox="0 0 1034 80" fill="none" xmlns="http://www.w3.org/2000/svg">
<path d="M723 98.5C723 131.085 630.323 157.5 516 157.5C401.677 157.5 309 131.085 309 98.5C309 65.9152 401.677 39.5 516 39.5C630.323 39.5 723 65.9152 723 98.5Z" fill="#2A8F47"/>
<path d="M552.371 126.2V126.206C552.77 126.592 553.188 126.962 553.621 127.31C558.149 130.942 561.777 133.901 566.039 136.119C580.692 137.737 595.364 139.137 610.056 140.32C647.871 143.362 685.759 144.979 723.722 145.172C800.735 145.614 881.705 148.318 949.135 106.368C971.571 92.4088 1004.07 121.034 1026.3 105.727C1032.71 101.3 1038.66 96.0971 1044.05 90.2109C1045.51 84.2097 1046.57 78.0952 1047.21 71.9181C1049 55.2323 1047.74 38.314 1043.52 22.1898C1041.47 14.4761 1038.69 7.03551 1035.2 0C1024.88 4.15645 1014.97 10.14 1005.55 16.4767C988.264 28.085 971.455 41.2664 952.206 47.9123C923.831 57.71 893.133 52.3227 864.34 44.2195C835.547 36.1164 806.946 25.3195 777.272 24.4088C737.474 23.1889 699.166 39.8092 662.119 56.1645C624.954 72.575 587.784 88.9837 550.609 105.391C549.792 107.88 549.062 110.406 548.419 112.969C547.105 118.18 549.009 122.899 552.371 126.2Z" fill="#1F7F44"/>
<path d="M458.629 131.078V131.084C458.23 131.47 457.812 131.84 457.379 132.188C452.851 135.82 449.223 138.779 444.961 140.998C430.308 142.615 415.636 144.015 400.944 145.198C363.129 148.24 325.241 149.857 287.278 150.05C210.265 150.492 129.295 153.196 61.8654 111.246C39.4287 97.2868 6.92728 125.912 -15.3 110.605C-21.7069 106.179 -27.6605 100.975 -33.0532 95.089C-34.5097 89.0877 -35.5659 82.9732 -36.2131 76.7962C-37.9974 60.1104 -36.7398 43.192 -32.5168 27.0679C-30.4736 19.3542 -27.6861 11.9136 -24.2037 4.87805C-13.8776 9.0345 -3.97471 15.018 5.45071 21.3548C22.7364 32.963 39.5447 46.1445 58.7942 52.7904C87.1689 62.5881 117.867 57.2007 146.66 49.0976C175.453 40.9944 204.054 30.1976 233.728 29.2868C273.526 28.0669 311.834 44.6872 348.881 61.0425C386.046 77.4531 423.216 93.8617 460.391 110.269C461.208 112.758 461.938 115.284 462.581 117.847C463.895 123.058 461.991 127.778 458.629 131.078Z" fill="#1F7F44"/>
</svg>
